<svg width="310" height="73" viewBox="0 0 310 73" fill="none" xmlns="http://www.w3.org/2000/svg">
    <path d="M211.693 65.3323C211.693 65.0555 211.649 64.8113 211.563 64.5996C211.481 64.3825 211.335 64.1871 211.123 64.0135C210.917 63.8398 210.629 63.6743 210.26 63.5169C209.897 63.3595 209.435 63.1994 208.876 63.0366C208.29 62.8629 207.761 62.6703 207.289 62.4586C206.817 62.2415 206.412 61.9946 206.076 61.7178C205.739 61.441 205.482 61.1235 205.303 60.7654C205.123 60.4072 205.034 59.9974 205.034 59.5361C205.034 59.0748 205.129 58.6488 205.319 58.258C205.509 57.8673 205.78 57.5281 206.133 57.2405C206.491 56.9474 206.917 56.7195 207.411 56.5567C207.905 56.3938 208.456 56.3124 209.063 56.3124C209.954 56.3124 210.708 56.4834 211.327 56.8253C211.951 57.1618 212.426 57.6041 212.751 58.1522C213.077 58.6949 213.24 59.2756 213.24 59.8943H211.677C211.677 59.4493 211.582 59.0558 211.392 58.7139C211.202 58.3666 210.914 58.0952 210.529 57.8999C210.143 57.6991 209.655 57.5987 209.063 57.5987C208.504 57.5987 208.043 57.6828 207.68 57.851C207.316 58.0193 207.045 58.2472 206.866 58.5348C206.692 58.8225 206.605 59.1508 206.605 59.5198C206.605 59.7695 206.657 59.9974 206.76 60.2037C206.868 60.4045 207.034 60.5917 207.256 60.7654C207.484 60.939 207.772 61.0991 208.119 61.2457C208.472 61.3922 208.893 61.5333 209.381 61.669C210.054 61.8589 210.635 62.0706 211.123 62.3039C211.611 62.5373 212.013 62.8005 212.328 63.0936C212.648 63.3812 212.884 63.7096 213.036 64.0786C213.193 64.4422 213.272 64.8547 213.272 65.316C213.272 65.799 213.174 66.2359 212.979 66.6266C212.784 67.0174 212.504 67.3511 212.141 67.6279C211.777 67.9047 211.34 68.1191 210.83 68.271C210.325 68.4175 209.761 68.4908 209.137 68.4908C208.589 68.4908 208.049 68.4148 207.517 68.2629C206.99 68.1109 206.51 67.883 206.076 67.5791C205.647 67.2751 205.303 66.9007 205.042 66.4557C204.787 66.0052 204.659 65.4842 204.659 64.8927H206.222C206.222 65.2997 206.301 65.6497 206.458 65.9428C206.616 66.2304 206.83 66.4692 207.102 66.6592C207.378 66.8491 207.69 66.9902 208.038 67.0825C208.391 67.1693 208.757 67.2127 209.137 67.2127C209.685 67.2127 210.149 67.1368 210.529 66.9848C210.909 66.8328 211.196 66.6158 211.392 66.3335C211.592 66.0513 211.693 65.7176 211.693 65.3323ZM218.702 68.4908C218.089 68.4908 217.532 68.3877 217.033 68.1815C216.539 67.9698 216.113 67.674 215.755 67.2941C215.402 66.9142 215.131 66.4638 214.941 65.9428C214.751 65.4218 214.656 64.852 214.656 64.2333V63.8914C214.656 63.175 214.762 62.5373 214.974 61.9783C215.185 61.4139 215.473 60.9363 215.836 60.5456C216.2 60.1548 216.613 59.859 217.074 59.6582C217.535 59.4574 218.013 59.357 218.507 59.357C219.136 59.357 219.679 59.4656 220.135 59.6827C220.596 59.8997 220.973 60.2037 221.266 60.5944C221.559 60.9797 221.776 61.4356 221.918 61.962C222.059 62.483 222.129 63.0529 222.129 63.6716V64.3472H215.552V63.118H220.623V63.004C220.601 62.6133 220.52 62.2334 220.379 61.8643C220.243 61.4953 220.026 61.1914 219.728 60.9526C219.429 60.7138 219.022 60.5944 218.507 60.5944C218.165 60.5944 217.85 60.6677 217.562 60.8142C217.275 60.9553 217.028 61.167 216.821 61.4492C216.615 61.7314 216.455 62.076 216.341 62.483C216.227 62.8901 216.17 63.3595 216.17 63.8914V64.2333C216.17 64.6512 216.227 65.0446 216.341 65.4137C216.461 65.7773 216.632 66.0975 216.854 66.3743C217.082 66.651 217.356 66.8681 217.676 67.0255C218.002 67.1829 218.371 67.2616 218.783 67.2616C219.315 67.2616 219.766 67.153 220.135 66.936C220.504 66.7189 220.827 66.4285 221.103 66.0649L222.015 66.7894C221.825 67.0771 221.584 67.3511 221.291 67.6116C220.998 67.8721 220.637 68.0838 220.208 68.2466C219.785 68.4094 219.283 68.4908 218.702 68.4908ZM229.081 66.822V62.2877C229.081 61.9403 229.011 61.6391 228.87 61.384C228.734 61.1235 228.528 60.9227 228.251 60.7816C227.974 60.6405 227.632 60.57 227.225 60.57C226.845 60.57 226.512 60.6351 226.224 60.7654C225.942 60.8956 225.719 61.0666 225.556 61.2782C225.399 61.4899 225.32 61.7178 225.32 61.962H223.814C223.814 61.6473 223.896 61.3352 224.059 61.0259C224.221 60.7165 224.455 60.437 224.759 60.1874C225.068 59.9323 225.437 59.7315 225.866 59.585C226.3 59.433 226.783 59.357 227.315 59.357C227.955 59.357 228.52 59.4656 229.008 59.6827C229.502 59.8997 229.887 60.2281 230.164 60.6677C230.446 61.1018 230.587 61.6473 230.587 62.3039V66.4068C230.587 66.6999 230.612 67.0119 230.661 67.343C230.715 67.674 230.794 67.959 230.897 68.1978V68.328H229.325C229.25 68.1543 229.19 67.9237 229.146 67.636C229.103 67.343 229.081 67.0716 229.081 66.822ZM229.342 62.9878L229.358 64.046H227.836C227.407 64.046 227.024 64.0813 226.688 64.1519C226.351 64.217 226.069 64.3174 225.841 64.4531C225.613 64.5887 225.44 64.7597 225.32 64.9659C225.201 65.1667 225.141 65.4028 225.141 65.6742C225.141 65.9509 225.204 66.2033 225.328 66.4312C225.453 66.6592 225.64 66.841 225.89 66.9767C226.145 67.1069 226.457 67.172 226.826 67.172C227.288 67.172 227.695 67.0743 228.047 66.879C228.4 66.6836 228.68 66.4448 228.886 66.1626C229.098 65.8804 229.212 65.6063 229.228 65.3404L229.871 66.0649C229.833 66.2928 229.73 66.5452 229.562 66.822C229.393 67.0988 229.168 67.3647 228.886 67.6198C228.609 67.8694 228.278 68.0784 227.893 68.2466C227.513 68.4094 227.084 68.4908 226.607 68.4908C226.01 68.4908 225.486 68.3741 225.035 68.1408C224.59 67.9074 224.243 67.5953 223.993 67.2046C223.749 66.8084 223.627 66.3661 223.627 65.8777C223.627 65.4055 223.719 64.9903 223.904 64.6322C224.088 64.2685 224.354 63.9673 224.702 63.7285C225.049 63.4843 225.467 63.2998 225.955 63.175C226.444 63.0502 226.989 62.9878 227.592 62.9878H229.342ZM234.462 60.9038V68.328H232.956V59.5198H234.422L234.462 60.9038ZM237.214 59.471L237.206 60.8712C237.081 60.8441 236.961 60.8278 236.847 60.8223C236.739 60.8115 236.614 60.8061 236.473 60.8061C236.126 60.8061 235.819 60.8603 235.553 60.9689C235.287 61.0774 235.062 61.2294 234.877 61.4248C234.693 61.6201 234.546 61.8535 234.438 62.1248C234.335 62.3908 234.267 62.6838 234.234 63.004L233.811 63.2483C233.811 62.7164 233.863 62.2171 233.966 61.7504C234.074 61.2836 234.24 60.8712 234.462 60.513C234.685 60.1494 234.967 59.8672 235.309 59.6664C235.656 59.4601 236.069 59.357 236.546 59.357C236.655 59.357 236.78 59.3706 236.921 59.3977C237.062 59.4194 237.159 59.4439 237.214 59.471ZM241.968 67.2534C242.326 67.2534 242.657 67.1802 242.961 67.0336C243.265 66.8871 243.515 66.6863 243.71 66.4312C243.905 66.1707 244.017 65.875 244.044 65.5439H245.476C245.449 66.0649 245.273 66.5506 244.947 67.0011C244.627 67.4461 244.207 67.807 243.686 68.0838C243.165 68.3551 242.592 68.4908 241.968 68.4908C241.306 68.4908 240.728 68.3741 240.234 68.1408C239.745 67.9074 239.338 67.5872 239.013 67.1802C238.693 66.7731 238.451 66.3064 238.288 65.78C238.131 65.2481 238.052 64.6864 238.052 64.0949V63.753C238.052 63.1614 238.131 62.6024 238.288 62.076C238.451 61.5441 238.693 61.0747 239.013 60.6677C239.338 60.2606 239.745 59.9404 240.234 59.7071C240.728 59.4737 241.306 59.357 241.968 59.357C242.657 59.357 243.26 59.4981 243.775 59.7803C244.291 60.0571 244.695 60.437 244.988 60.92C245.287 61.3976 245.449 61.9403 245.476 62.5482H244.044C244.017 62.1845 243.913 61.8562 243.734 61.5631C243.561 61.2701 243.322 61.0367 243.018 60.863C242.72 60.684 242.369 60.5944 241.968 60.5944C241.507 60.5944 241.119 60.6867 240.804 60.8712C240.494 61.0503 240.247 61.2945 240.063 61.6038C239.884 61.9078 239.754 62.247 239.672 62.6214C239.596 62.9905 239.558 63.3676 239.558 63.753V64.0949C239.558 64.4802 239.596 64.8601 239.672 65.2346C239.748 65.609 239.876 65.9482 240.055 66.2521C240.239 66.5561 240.486 66.8003 240.796 66.9848C241.11 67.1639 241.501 67.2534 241.968 67.2534ZM248.676 55.824V68.328H247.17V55.824H248.676ZM248.318 63.5902L247.691 63.5657C247.696 62.9633 247.786 62.4071 247.959 61.8969C248.133 61.3813 248.377 60.9336 248.692 60.5537C249.007 60.1738 249.381 59.8807 249.815 59.6745C250.255 59.4629 250.741 59.357 251.273 59.357C251.707 59.357 252.098 59.4167 252.445 59.5361C252.792 59.6501 253.088 59.8346 253.332 60.0897C253.582 60.3448 253.772 60.6758 253.902 61.0828C254.032 61.4845 254.097 61.9756 254.097 62.5563V68.328H252.583V62.54C252.583 62.0787 252.515 61.7097 252.38 61.4329C252.244 61.1507 252.046 60.9472 251.785 60.8223C251.525 60.6921 251.205 60.627 250.825 60.627C250.45 60.627 250.109 60.7057 249.799 60.863C249.495 61.0204 249.232 61.2375 249.01 61.5143C248.792 61.7911 248.621 62.1086 248.497 62.4668C248.377 62.8195 248.318 63.194 248.318 63.5902ZM261.994 55.824V68.328H260.488V55.824H261.994ZM261.636 63.5902L261.009 63.5657C261.014 62.9633 261.104 62.4071 261.277 61.8969C261.451 61.3813 261.695 60.9336 262.01 60.5537C262.325 60.1738 262.699 59.8807 263.134 59.6745C263.573 59.4629 264.059 59.357 264.591 59.357C265.025 59.357 265.416 59.4167 265.763 59.5361C266.11 59.6501 266.406 59.8346 266.65 60.0897C266.9 60.3448 267.09 60.6758 267.22 61.0828C267.35 61.4845 267.415 61.9756 267.415 62.5563V68.328H265.901V62.54C265.901 62.0787 265.833 61.7097 265.698 61.4329C265.562 61.1507 265.364 60.9472 265.104 60.8223C264.843 60.6921 264.523 60.627 264.143 60.627C263.768 60.627 263.427 60.7057 263.117 60.863C262.813 61.0204 262.55 61.2375 262.328 61.5143C262.11 61.7911 261.94 62.1086 261.815 62.4668C261.695 62.8195 261.636 63.194 261.636 63.5902ZM273.326 68.4908C272.712 68.4908 272.156 68.3877 271.657 68.1815C271.163 67.9698 270.737 67.674 270.379 67.2941C270.026 66.9142 269.755 66.4638 269.565 65.9428C269.375 65.4218 269.28 64.852 269.28 64.2333V63.8914C269.28 63.175 269.386 62.5373 269.597 61.9783C269.809 61.4139 270.096 60.9363 270.46 60.5456C270.824 60.1548 271.236 59.859 271.697 59.6582C272.159 59.4574 272.636 59.357 273.13 59.357C273.76 59.357 274.302 59.4656 274.758 59.6827C275.22 59.8997 275.597 60.2037 275.89 60.5944C276.183 60.9797 276.4 61.4356 276.541 61.962C276.682 62.483 276.753 63.0529 276.753 63.6716V64.3472H270.175V63.118H275.247V63.004C275.225 62.6133 275.144 62.2334 275.003 61.8643C274.867 61.4953 274.65 61.1914 274.351 60.9526C274.053 60.7138 273.646 60.5944 273.13 60.5944C272.788 60.5944 272.474 60.6677 272.186 60.8142C271.898 60.9553 271.651 61.167 271.445 61.4492C271.239 61.7314 271.079 62.076 270.965 62.483C270.851 62.8901 270.794 63.3595 270.794 63.8914V64.2333C270.794 64.6512 270.851 65.0446 270.965 65.4137C271.084 65.7773 271.255 66.0975 271.478 66.3743C271.706 66.651 271.98 66.8681 272.3 67.0255C272.625 67.1829 272.995 67.2616 273.407 67.2616C273.939 67.2616 274.389 67.153 274.758 66.936C275.127 66.7189 275.45 66.4285 275.727 66.0649L276.639 66.7894C276.449 67.0771 276.207 67.3511 275.914 67.6116C275.621 67.8721 275.26 68.0838 274.832 68.2466C274.408 68.4094 273.906 68.4908 273.326 68.4908ZM280.017 60.9038V68.328H278.511V59.5198H279.976L280.017 60.9038ZM282.769 59.471L282.761 60.8712C282.636 60.8441 282.516 60.8278 282.402 60.8223C282.294 60.8115 282.169 60.8061 282.028 60.8061C281.681 60.8061 281.374 60.8603 281.108 60.9689C280.842 61.0774 280.617 61.2294 280.432 61.4248C280.248 61.6201 280.101 61.8535 279.993 62.1248C279.89 62.3908 279.822 62.6838 279.789 63.004L279.366 63.2483C279.366 62.7164 279.417 62.2171 279.521 61.7504C279.629 61.2836 279.795 60.8712 280.017 60.513C280.24 60.1494 280.522 59.8672 280.864 59.6664C281.211 59.4601 281.624 59.357 282.101 59.357C282.21 59.357 282.335 59.3706 282.476 59.3977C282.617 59.4194 282.714 59.4439 282.769 59.471ZM283.599 64.0216V63.8344C283.599 63.1994 283.691 62.6106 283.876 62.0679C284.06 61.5197 284.326 61.0449 284.674 60.6433C285.021 60.2362 285.442 59.9215 285.935 59.6989C286.429 59.471 286.983 59.357 287.596 59.357C288.215 59.357 288.771 59.471 289.265 59.6989C289.764 59.9215 290.188 60.2362 290.535 60.6433C290.888 61.0449 291.156 61.5197 291.341 62.0679C291.525 62.6106 291.618 63.1994 291.618 63.8344V64.0216C291.618 64.6566 291.525 65.2454 291.341 65.7881C291.156 66.3308 290.888 66.8057 290.535 67.2127C290.188 67.6143 289.767 67.9291 289.273 68.157C288.785 68.3796 288.231 68.4908 287.612 68.4908C286.994 68.4908 286.437 68.3796 285.944 68.157C285.45 67.9291 285.026 67.6143 284.674 67.2127C284.326 66.8057 284.06 66.3308 283.876 65.7881C283.691 65.2454 283.599 64.6566 283.599 64.0216ZM285.105 63.8344V64.0216C285.105 64.4612 285.157 64.8764 285.26 65.2671C285.363 65.6525 285.518 65.9944 285.724 66.2928C285.935 66.5913 286.199 66.8274 286.513 67.0011C286.828 67.1693 287.194 67.2534 287.612 67.2534C288.025 67.2534 288.386 67.1693 288.695 67.0011C289.01 66.8274 289.27 66.5913 289.477 66.2928C289.683 65.9944 289.837 65.6525 289.941 65.2671C290.049 64.8764 290.103 64.4612 290.103 64.0216V63.8344C290.103 63.4002 290.049 62.9905 289.941 62.6051C289.837 62.2144 289.68 61.8698 289.468 61.5713C289.262 61.2674 289.002 61.0286 288.687 60.8549C288.378 60.6812 288.014 60.5944 287.596 60.5944C287.184 60.5944 286.82 60.6812 286.505 60.8549C286.196 61.0286 285.935 61.2674 285.724 61.5713C285.518 61.8698 285.363 62.2144 285.26 62.6051C285.157 62.9905 285.105 63.4002 285.105 63.8344ZM297.161 68.4908C296.548 68.4908 295.992 68.3877 295.492 68.1815C294.999 67.9698 294.573 67.674 294.214 67.2941C293.862 66.9142 293.59 66.4638 293.4 65.9428C293.21 65.4218 293.115 64.852 293.115 64.2333V63.8914C293.115 63.175 293.221 62.5373 293.433 61.9783C293.645 61.4139 293.932 60.9363 294.296 60.5456C294.659 60.1548 295.072 59.859 295.533 59.6582C295.994 59.4574 296.472 59.357 296.966 59.357C297.595 59.357 298.138 59.4656 298.594 59.6827C299.055 59.8997 299.433 60.2037 299.726 60.5944C300.019 60.9797 300.236 61.4356 300.377 61.962C300.518 62.483 300.589 63.0529 300.589 63.6716V64.3472H294.011V63.118H299.083V63.004C299.061 62.6133 298.979 62.2334 298.838 61.8643C298.703 61.4953 298.486 61.1914 298.187 60.9526C297.889 60.7138 297.482 60.5944 296.966 60.5944C296.624 60.5944 296.309 60.6677 296.022 60.8142C295.734 60.9553 295.487 61.167 295.281 61.4492C295.075 61.7314 294.915 62.076 294.801 62.483C294.687 62.8901 294.63 63.3595 294.63 63.8914V64.2333C294.63 64.6512 294.687 65.0446 294.801 65.4137C294.92 65.7773 295.091 66.0975 295.313 66.3743C295.541 66.651 295.815 66.8681 296.136 67.0255C296.461 67.1829 296.83 67.2616 297.243 67.2616C297.775 67.2616 298.225 67.153 298.594 66.936C298.963 66.7189 299.286 66.4285 299.563 66.0649L300.475 66.7894C300.285 67.0771 300.043 67.3511 299.75 67.6116C299.457 67.8721 299.096 68.0838 298.667 68.2466C298.244 68.4094 297.742 68.4908 297.161 68.4908ZM307.475 65.9916C307.475 65.7746 307.427 65.5738 307.329 65.3892C307.237 65.1993 307.044 65.0283 306.751 64.8764C306.463 64.719 306.029 64.5833 305.448 64.4693C304.96 64.3662 304.518 64.2441 304.122 64.103C303.731 63.9619 303.397 63.791 303.12 63.5902C302.849 63.3894 302.64 63.1533 302.493 62.8819C302.347 62.6106 302.274 62.2931 302.274 61.9295C302.274 61.5821 302.35 61.2538 302.502 60.9445C302.659 60.6351 302.879 60.361 303.161 60.1223C303.449 59.8835 303.793 59.6962 304.195 59.5605C304.596 59.4249 305.044 59.357 305.538 59.357C306.244 59.357 306.846 59.4819 307.345 59.7315C307.845 59.9811 308.227 60.3149 308.493 60.7328C308.759 61.1453 308.892 61.6038 308.892 62.1086H307.386C307.386 61.8643 307.313 61.6283 307.166 61.4003C307.025 61.167 306.816 60.9743 306.539 60.8223C306.268 60.6704 305.934 60.5944 305.538 60.5944C305.12 60.5944 304.781 60.6595 304.52 60.7898C304.265 60.9146 304.078 61.0747 303.959 61.2701C303.845 61.4655 303.788 61.6717 303.788 61.8888C303.788 62.0516 303.815 62.1981 303.869 62.3284C303.929 62.4532 304.032 62.5699 304.179 62.6784C304.325 62.7815 304.531 62.8792 304.797 62.9715C305.063 63.0637 305.402 63.156 305.815 63.2483C306.537 63.4111 307.131 63.6064 307.598 63.8344C308.064 64.0623 308.412 64.3418 308.64 64.6729C308.868 65.0039 308.982 65.4055 308.982 65.8777C308.982 66.263 308.9 66.6158 308.737 66.936C308.58 67.2562 308.349 67.5329 308.045 67.7663C307.747 67.9942 307.389 68.1733 306.971 68.3036C306.558 68.4284 306.094 68.4908 305.579 68.4908C304.803 68.4908 304.146 68.3524 303.609 68.0756C303.071 67.7989 302.664 67.4407 302.388 67.0011C302.111 66.5615 301.972 66.0975 301.972 65.609H303.487C303.508 66.0215 303.628 66.3498 303.845 66.594C304.062 66.8328 304.328 67.0038 304.643 67.1069C304.957 67.2046 305.269 67.2534 305.579 67.2534C305.991 67.2534 306.336 67.1992 306.613 67.0906C306.895 66.9821 307.109 66.8328 307.256 66.6429C307.402 66.4529 307.475 66.2359 307.475 65.9916Z" fill="#404040" />
    <path d="M191 56.5472V68.9453H168.118V0H180.441V56.5472H191ZM93.2293 33.8085C92.2761 34.2696 91.2791 34.4985 90.307 34.5017V12.3275H90.3695C91.3416 12.3197 98.5957 12.6161 98.5957 23.2938C98.5957 28.875 96.1266 32.3956 93.2293 33.8085ZM57.1178 47.422L60.5292 17.9416L64.0688 47.422H57.1178ZM165.97 12.5847V0.0109761H131.08L125.337 42.0054L119.664 0.00942034H107.081L108.489 11.2219C107.039 8.34902 101.888 0.00942034 90.5493 0.00942034C90.4758 0.00616772 77.9537 0.00942034 77.9537 0.00942034L77.9052 61.2189L68.7351 0.0109761L52.2561 0.00321647L42.7672 63.4207L42.7705 0.0110524H27.0009L21.3156 35.6354L15.7773 0.0093917H0V68.9563H12.4237V35.7233L18.0777 68.9563H24.6818L30.2529 35.7233V68.9563H54.2049L55.6551 58.3522H65.2971L66.7458 68.9563L90.2602 68.9688H90.2759V68.9563H90.3071V46.5782L93.1904 46.1548L99.1553 68.9719H111.32L111.316 68.9562H111.351L103.52 42.2218C107.486 39.2736 111.968 31.8027 110.776 24.6534V24.6501C110.788 24.7411 118.166 69 118.166 69L132.631 68.9577L142.518 6.46549V68.9577H165.97V56.5565H154.837V40.7492H165.97V28.1566H154.837V12.583H165.97L165.97 12.5847Z" fill="#FE0000" />
</svg>
    