<svg width="231" height="33" viewBox="0 0 231 33" fill="none" xmlns="http://www.w3.org/2000/svg">
    <path d="M114.229 19.8984C114.229 19.6868 114.196 19.4968 114.131 19.3286C114.071 19.1549 113.958 18.9975 113.789 18.8564C113.621 18.7099 113.385 18.5661 113.081 18.425C112.777 18.2839 112.384 18.1373 111.901 17.9854C111.363 17.8117 110.853 17.6163 110.37 17.3992C109.893 17.1822 109.469 16.9298 109.1 16.6422C108.737 16.3491 108.449 16.0099 108.237 15.6246C108.031 15.2393 107.928 14.7915 107.928 14.2814C107.928 13.7875 108.037 13.3398 108.254 12.9382C108.471 12.5312 108.775 12.1838 109.165 11.8962C109.556 11.6031 110.017 11.3779 110.549 11.2205C111.087 11.0631 111.675 10.9844 112.316 10.9844C113.19 10.9844 113.952 11.1418 114.603 11.4566C115.255 11.7714 115.759 12.2028 116.118 12.751C116.481 13.2991 116.663 13.9259 116.663 14.6314H114.237C114.237 14.2841 114.164 13.9802 114.017 13.7197C113.876 13.4538 113.659 13.2448 113.366 13.0929C113.078 12.9409 112.715 12.8649 112.275 12.8649C111.852 12.8649 111.499 12.93 111.217 13.0603C110.935 13.1851 110.723 13.3561 110.582 13.5732C110.441 13.7848 110.37 14.0236 110.37 14.2895C110.37 14.4903 110.419 14.6721 110.517 14.835C110.62 14.9978 110.772 15.1497 110.973 15.2908C111.173 15.4319 111.42 15.5649 111.713 15.6897C112.006 15.8145 112.346 15.9367 112.731 16.056C113.377 16.2514 113.944 16.4712 114.432 16.7154C114.926 16.9597 115.339 17.2337 115.67 17.5376C116.001 17.8416 116.25 18.1862 116.419 18.5715C116.587 18.9568 116.671 19.3937 116.671 19.8821C116.671 20.3977 116.571 20.859 116.37 21.266C116.169 21.6731 115.879 22.0177 115.499 22.2999C115.119 22.5821 114.666 22.7965 114.139 22.943C113.613 23.0895 113.024 23.1628 112.373 23.1628C111.787 23.1628 111.209 23.0868 110.639 22.9349C110.069 22.7775 109.551 22.5414 109.084 22.2266C108.623 21.9119 108.254 21.5103 107.977 21.0218C107.7 20.5334 107.562 19.9554 107.562 19.2879H110.012C110.012 19.6569 110.069 19.969 110.183 20.224C110.297 20.4791 110.457 20.6853 110.663 20.8427C110.875 21.0001 111.125 21.1141 111.412 21.1846C111.705 21.2552 112.025 21.2905 112.373 21.2905C112.796 21.2905 113.143 21.2308 113.415 21.1114C113.692 20.992 113.895 20.8265 114.025 20.6148C114.161 20.4031 114.229 20.1643 114.229 19.8984ZM122.239 23.1628C121.555 23.1628 120.942 23.0543 120.399 22.8372C119.857 22.6147 119.395 22.308 119.016 21.9173C118.641 21.5265 118.353 21.0734 118.153 20.5578C117.952 20.0368 117.851 19.4832 117.851 18.8971V18.5715C117.851 17.904 117.946 17.2934 118.136 16.7399C118.326 16.1863 118.598 15.706 118.95 15.299C119.309 14.8919 119.743 14.5799 120.253 14.3628C120.763 14.1403 121.338 14.029 121.979 14.029C122.603 14.029 123.156 14.1321 123.639 14.3384C124.122 14.5446 124.527 14.8377 124.852 15.2176C125.183 15.5975 125.433 16.0533 125.601 16.5852C125.77 17.1116 125.854 17.6977 125.854 18.3436V19.3204H118.853V17.7574H123.55V17.5783C123.55 17.2527 123.49 16.9624 123.371 16.7073C123.257 16.4468 123.083 16.2406 122.85 16.0886C122.616 15.9367 122.318 15.8607 121.954 15.8607C121.645 15.8607 121.379 15.9285 121.157 16.0642C120.934 16.1999 120.752 16.3898 120.611 16.634C120.475 16.8782 120.372 17.1659 120.302 17.4969C120.237 17.8226 120.204 18.1807 120.204 18.5715V18.8971C120.204 19.2499 120.253 19.5755 120.351 19.874C120.454 20.1725 120.598 20.4303 120.782 20.6474C120.972 20.8644 121.2 21.0327 121.466 21.1521C121.737 21.2715 122.044 21.3312 122.386 21.3312C122.809 21.3312 123.203 21.2498 123.566 21.087C123.935 20.9187 124.253 20.6664 124.519 20.3299L125.658 21.5672C125.474 21.8332 125.221 22.0882 124.901 22.3325C124.586 22.5767 124.207 22.7775 123.762 22.9349C123.317 23.0868 122.809 23.1628 122.239 23.1628ZM131.943 21.0137V17.0899C131.943 16.8077 131.897 16.5662 131.804 16.3654C131.712 16.1592 131.568 15.9991 131.373 15.8851C131.183 15.7711 130.936 15.7141 130.632 15.7141C130.372 15.7141 130.147 15.7603 129.957 15.8525C129.767 15.9394 129.62 16.0669 129.517 16.2351C129.414 16.398 129.362 16.5906 129.362 16.8131H127.018C127.018 16.4387 127.105 16.0832 127.278 15.7467C127.452 15.4102 127.704 15.1144 128.035 14.8594C128.366 14.5989 128.76 14.3954 129.216 14.2488C129.677 14.1023 130.193 14.029 130.762 14.029C131.446 14.029 132.054 14.143 132.586 14.3709C133.118 14.5989 133.536 14.9408 133.84 15.3967C134.149 15.8525 134.304 16.4224 134.304 17.1062V20.8753C134.304 21.3583 134.334 21.7545 134.393 22.0638C134.453 22.3677 134.54 22.6337 134.654 22.8616V23H132.285C132.171 22.7612 132.084 22.4627 132.024 22.1045C131.97 21.7409 131.943 21.3773 131.943 21.0137ZM132.252 17.6353L132.269 18.9622H130.958C130.649 18.9622 130.38 18.9975 130.152 19.0681C129.924 19.1386 129.737 19.239 129.59 19.3693C129.444 19.4941 129.335 19.6406 129.265 19.8089C129.199 19.9771 129.167 20.1616 129.167 20.3624C129.167 20.5632 129.213 20.745 129.305 20.9079C129.398 21.0652 129.531 21.1901 129.704 21.2823C129.878 21.3692 130.081 21.4126 130.315 21.4126C130.668 21.4126 130.974 21.342 131.235 21.2009C131.495 21.0598 131.696 20.8862 131.837 20.6799C131.984 20.4737 132.06 20.2783 132.065 20.0938L132.684 21.087C132.597 21.3095 132.477 21.5401 132.325 21.7789C132.179 22.0177 131.992 22.2429 131.764 22.4546C131.536 22.6608 131.262 22.8318 130.942 22.9674C130.621 23.0977 130.241 23.1628 129.802 23.1628C129.243 23.1628 128.735 23.0516 128.28 22.829C127.829 22.6011 127.471 22.2891 127.205 21.8929C126.945 21.4913 126.814 21.0354 126.814 20.5252C126.814 20.0639 126.901 19.6542 127.075 19.296C127.248 18.9378 127.504 18.6366 127.84 18.3924C128.182 18.1428 128.608 17.9555 129.118 17.8307C129.628 17.7005 130.22 17.6353 130.893 17.6353H132.252ZM138.455 16.113V23H136.111V14.1918H138.317L138.455 16.113ZM141.109 14.1349L141.069 16.3084C140.955 16.2921 140.816 16.2786 140.653 16.2677C140.496 16.2514 140.352 16.2433 140.222 16.2433C139.891 16.2433 139.603 16.2867 139.359 16.3735C139.12 16.4549 138.919 16.577 138.757 16.7399C138.599 16.9027 138.48 17.1008 138.398 17.3341C138.322 17.5675 138.279 17.8334 138.268 18.1319L137.796 17.9854C137.796 17.4155 137.853 16.8918 137.967 16.4142C138.081 15.9312 138.246 15.5106 138.464 15.1524C138.686 14.7942 138.957 14.5175 139.278 14.3221C139.598 14.1267 139.964 14.029 140.377 14.029C140.507 14.029 140.64 14.0399 140.775 14.0616C140.911 14.0779 141.022 14.1023 141.109 14.1349ZM145.692 21.3312C145.98 21.3312 146.235 21.2769 146.458 21.1684C146.68 21.0544 146.854 20.897 146.979 20.6962C147.109 20.49 147.177 20.2485 147.182 19.9717H149.388C149.383 20.5904 149.217 21.1412 148.892 21.6242C148.566 22.1018 148.129 22.479 147.581 22.7558C147.033 23.0271 146.42 23.1628 145.741 23.1628C145.057 23.1628 144.46 23.0488 143.95 22.8209C143.446 22.593 143.025 22.2782 142.689 21.8766C142.352 21.4696 142.1 20.9974 141.931 20.4601C141.763 19.9174 141.679 19.3367 141.679 18.718V18.482C141.679 17.8578 141.763 17.2771 141.931 16.7399C142.1 16.1972 142.352 15.725 142.689 15.3234C143.025 14.9164 143.446 14.5989 143.95 14.3709C144.455 14.143 145.047 14.029 145.725 14.029C146.447 14.029 147.079 14.1674 147.622 14.4442C148.17 14.721 148.599 15.1172 148.908 15.6327C149.223 16.1429 149.383 16.748 149.388 17.4481H147.182C147.177 17.155 147.114 16.8891 146.995 16.6503C146.881 16.4115 146.713 16.2216 146.49 16.0805C146.273 15.9339 146.004 15.8607 145.684 15.8607C145.342 15.8607 145.063 15.9339 144.846 16.0805C144.629 16.2216 144.46 16.4169 144.341 16.6666C144.222 16.9108 144.138 17.1903 144.089 17.5051C144.045 17.8144 144.024 18.14 144.024 18.482V18.718C144.024 19.0599 144.045 19.3883 144.089 19.703C144.132 20.0178 144.214 20.2973 144.333 20.5415C144.458 20.7857 144.629 20.9784 144.846 21.1195C145.063 21.2606 145.345 21.3312 145.692 21.3312ZM153.035 10.496V23H150.691V10.496H153.035ZM152.701 18.2866H152.058C152.064 17.6733 152.145 17.1089 152.303 16.5933C152.46 16.0723 152.685 15.6219 152.978 15.242C153.271 14.8567 153.621 14.5582 154.028 14.3465C154.441 14.1349 154.897 14.029 155.396 14.029C155.83 14.029 156.224 14.0914 156.576 14.2163C156.935 14.3357 157.241 14.531 157.496 14.8024C157.757 15.0683 157.958 15.4184 158.099 15.8525C158.24 16.2867 158.31 16.8131 158.31 17.4318V23H155.95V17.4155C155.95 17.0248 155.893 16.7182 155.779 16.4956C155.67 16.2677 155.51 16.1076 155.298 16.0153C155.092 15.9177 154.837 15.8688 154.533 15.8688C154.197 15.8688 153.909 15.9312 153.67 16.056C153.437 16.1809 153.25 16.3545 153.109 16.577C152.967 16.7941 152.864 17.0492 152.799 17.3423C152.734 17.6353 152.701 17.9501 152.701 18.2866ZM166.532 10.496V23H164.188V10.496H166.532ZM166.199 18.2866H165.556C165.561 17.6733 165.642 17.1089 165.8 16.5933C165.957 16.0723 166.182 15.6219 166.475 15.242C166.768 14.8567 167.119 14.5582 167.526 14.3465C167.938 14.1349 168.394 14.029 168.893 14.029C169.327 14.029 169.721 14.0914 170.074 14.2163C170.432 14.3357 170.738 14.531 170.993 14.8024C171.254 15.0683 171.455 15.4184 171.596 15.8525C171.737 16.2867 171.808 16.8131 171.808 17.4318V23H169.447V17.4155C169.447 17.0248 169.39 16.7182 169.276 16.4956C169.167 16.2677 169.007 16.1076 168.795 16.0153C168.589 15.9177 168.334 15.8688 168.03 15.8688C167.694 15.8688 167.406 15.9312 167.167 16.056C166.934 16.1809 166.747 16.3545 166.606 16.577C166.465 16.7941 166.361 17.0492 166.296 17.3423C166.231 17.6353 166.199 17.9501 166.199 18.2866ZM177.644 23.1628C176.961 23.1628 176.347 23.0543 175.805 22.8372C175.262 22.6147 174.801 22.308 174.421 21.9173C174.046 21.5265 173.759 21.0734 173.558 20.5578C173.357 20.0368 173.257 19.4832 173.257 18.8971V18.5715C173.257 17.904 173.352 17.2934 173.541 16.7399C173.731 16.1863 174.003 15.706 174.356 15.299C174.714 14.8919 175.148 14.5799 175.658 14.3628C176.168 14.1403 176.743 14.029 177.384 14.029C178.008 14.029 178.562 14.1321 179.045 14.3384C179.528 14.5446 179.932 14.8377 180.257 15.2176C180.589 15.5975 180.838 16.0533 181.006 16.5852C181.175 17.1116 181.259 17.6977 181.259 18.3436V19.3204H174.258V17.7574H178.955V17.5783C178.955 17.2527 178.895 16.9624 178.776 16.7073C178.662 16.4468 178.488 16.2406 178.255 16.0886C178.022 15.9367 177.723 15.8607 177.359 15.8607C177.05 15.8607 176.784 15.9285 176.562 16.0642C176.339 16.1999 176.157 16.3898 176.016 16.634C175.881 16.8782 175.777 17.1659 175.707 17.4969C175.642 17.8226 175.609 18.1807 175.609 18.5715V18.8971C175.609 19.2499 175.658 19.5755 175.756 19.874C175.859 20.1725 176.003 20.4303 176.187 20.6474C176.377 20.8644 176.605 21.0327 176.871 21.1521C177.142 21.2715 177.449 21.3312 177.791 21.3312C178.214 21.3312 178.608 21.2498 178.971 21.087C179.34 20.9187 179.658 20.6664 179.924 20.3299L181.063 21.5672C180.879 21.8332 180.627 22.0882 180.306 22.3325C179.992 22.5767 179.612 22.7775 179.167 22.9349C178.722 23.0868 178.214 23.1628 177.644 23.1628ZM184.938 16.113V23H182.594V14.1918H184.8L184.938 16.113ZM187.592 14.1349L187.551 16.3084C187.438 16.2921 187.299 16.2786 187.136 16.2677C186.979 16.2514 186.835 16.2433 186.705 16.2433C186.374 16.2433 186.086 16.2867 185.842 16.3735C185.603 16.4549 185.402 16.577 185.24 16.7399C185.082 16.9027 184.963 17.1008 184.881 17.3341C184.805 17.5675 184.762 17.8334 184.751 18.1319L184.279 17.9854C184.279 17.4155 184.336 16.8918 184.45 16.4142C184.564 15.9312 184.729 15.5106 184.946 15.1524C185.169 14.7942 185.44 14.5175 185.761 14.3221C186.081 14.1267 186.447 14.029 186.86 14.029C186.99 14.029 187.123 14.0399 187.258 14.0616C187.394 14.0779 187.505 14.1023 187.592 14.1349ZM188.081 18.6855V18.5145C188.081 17.8687 188.173 17.2744 188.357 16.7317C188.542 16.1836 188.811 15.7087 189.163 15.3071C189.516 14.9055 189.95 14.5934 190.466 14.3709C190.981 14.143 191.573 14.029 192.24 14.029C192.908 14.029 193.502 14.143 194.023 14.3709C194.544 14.5934 194.981 14.9055 195.334 15.3071C195.692 15.7087 195.963 16.1836 196.148 16.7317C196.333 17.2744 196.425 17.8687 196.425 18.5145V18.6855C196.425 19.3259 196.333 19.9201 196.148 20.4683C195.963 21.011 195.692 21.4858 195.334 21.8929C194.981 22.2945 194.547 22.6065 194.031 22.829C193.516 23.0516 192.924 23.1628 192.257 23.1628C191.589 23.1628 190.995 23.0516 190.474 22.829C189.958 22.6065 189.522 22.2945 189.163 21.8929C188.811 21.4858 188.542 21.011 188.357 20.4683C188.173 19.9201 188.081 19.3259 188.081 18.6855ZM190.425 18.5145V18.6855C190.425 19.0545 190.458 19.3991 190.523 19.7193C190.588 20.0395 190.691 20.3217 190.832 20.566C190.979 20.8047 191.169 20.992 191.402 21.1277C191.635 21.2633 191.92 21.3312 192.257 21.3312C192.582 21.3312 192.862 21.2633 193.095 21.1277C193.329 20.992 193.516 20.8047 193.657 20.566C193.798 20.3217 193.901 20.0395 193.966 19.7193C194.037 19.3991 194.072 19.0545 194.072 18.6855V18.5145C194.072 18.1563 194.037 17.8198 193.966 17.5051C193.901 17.1849 193.795 16.9027 193.649 16.6585C193.508 16.4088 193.32 16.2134 193.087 16.0723C192.854 15.9312 192.572 15.8607 192.24 15.8607C191.909 15.8607 191.627 15.9312 191.394 16.0723C191.166 16.2134 190.979 16.4088 190.832 16.6585C190.691 16.9027 190.588 17.1849 190.523 17.5051C190.458 17.8198 190.425 18.1563 190.425 18.5145ZM201.92 23.1628C201.236 23.1628 200.623 23.0543 200.08 22.8372C199.537 22.6147 199.076 22.308 198.696 21.9173C198.322 21.5265 198.034 21.0734 197.833 20.5578C197.632 20.0368 197.532 19.4832 197.532 18.8971V18.5715C197.532 17.904 197.627 17.2934 197.817 16.7399C198.007 16.1863 198.278 15.706 198.631 15.299C198.989 14.8919 199.423 14.5799 199.933 14.3628C200.444 14.1403 201.019 14.029 201.659 14.029C202.283 14.029 202.837 14.1321 203.32 14.3384C203.803 14.5446 204.207 14.8377 204.533 15.2176C204.864 15.5975 205.114 16.0533 205.282 16.5852C205.45 17.1116 205.534 17.6977 205.534 18.3436V19.3204H198.533V17.7574H203.23V17.5783C203.23 17.2527 203.171 16.9624 203.051 16.7073C202.937 16.4468 202.764 16.2406 202.53 16.0886C202.297 15.9367 201.998 15.8607 201.635 15.8607C201.325 15.8607 201.059 15.9285 200.837 16.0642C200.614 16.1999 200.433 16.3898 200.292 16.634C200.156 16.8782 200.053 17.1659 199.982 17.4969C199.917 17.8226 199.885 18.1807 199.885 18.5715V18.8971C199.885 19.2499 199.933 19.5755 200.031 19.874C200.134 20.1725 200.278 20.4303 200.463 20.6474C200.652 20.8644 200.88 21.0327 201.146 21.1521C201.418 21.2715 201.724 21.3312 202.066 21.3312C202.49 21.3312 202.883 21.2498 203.247 21.087C203.616 20.9187 203.933 20.6664 204.199 20.3299L205.339 21.5672C205.154 21.8332 204.902 22.0882 204.582 22.3325C204.267 22.5767 203.887 22.7775 203.442 22.9349C202.997 23.0868 202.49 23.1628 201.92 23.1628ZM211.631 20.566C211.631 20.3977 211.583 20.2458 211.485 20.1101C211.387 19.9744 211.205 19.8496 210.94 19.7356C210.679 19.6162 210.302 19.5077 209.808 19.41C209.363 19.3123 208.948 19.1902 208.562 19.0437C208.183 18.8917 207.851 18.7099 207.569 18.4982C207.293 18.2866 207.075 18.0369 206.918 17.7493C206.761 17.4562 206.682 17.1225 206.682 16.748C206.682 16.379 206.761 16.0316 206.918 15.706C207.081 15.3804 207.312 15.0927 207.61 14.8431C207.914 14.588 208.283 14.3899 208.717 14.2488C209.157 14.1023 209.651 14.029 210.199 14.029C210.964 14.029 211.621 14.1511 212.169 14.3954C212.722 14.6396 213.146 14.9761 213.439 15.4048C213.737 15.8281 213.886 16.3111 213.886 16.8538H211.542C211.542 16.6259 211.493 16.4224 211.395 16.2433C211.303 16.0588 211.157 15.9149 210.956 15.8118C210.76 15.7033 210.505 15.649 210.191 15.649C209.93 15.649 209.705 15.6951 209.515 15.7874C209.325 15.8742 209.178 15.9936 209.075 16.1456C208.978 16.2921 208.929 16.4549 208.929 16.634C208.929 16.7697 208.956 16.8918 209.01 17.0004C209.07 17.1035 209.165 17.1984 209.295 17.2853C209.425 17.3721 209.594 17.4535 209.8 17.5295C210.011 17.6001 210.272 17.6652 210.581 17.7249C211.216 17.8551 211.783 18.0261 212.283 18.2377C212.782 18.444 213.178 18.7262 213.471 19.0844C213.764 19.4371 213.911 19.9011 213.911 20.4764C213.911 20.8672 213.824 21.2253 213.65 21.551C213.477 21.8766 213.227 22.1615 212.901 22.4057C212.576 22.6445 212.185 22.8318 211.729 22.9674C211.279 23.0977 210.771 23.1628 210.207 23.1628C209.387 23.1628 208.693 23.0163 208.123 22.7232C207.558 22.4302 207.13 22.0584 206.837 21.608C206.549 21.1521 206.405 20.6853 206.405 20.2078H208.628C208.638 20.528 208.72 20.7857 208.872 20.9811C209.029 21.1765 209.227 21.3176 209.466 21.4044C209.71 21.4913 209.973 21.5347 210.256 21.5347C210.56 21.5347 210.812 21.494 211.013 21.4126C211.214 21.3257 211.366 21.2118 211.469 21.0707C211.577 20.9241 211.631 20.7559 211.631 20.566Z" fill="#404040"/>
    <path d="M89.9548 26.6319V32.471H79.1784V0H84.9817V26.6319H89.9548ZM43.908 15.9227C43.4591 16.1399 42.9895 16.2477 42.5317 16.2492V5.80586H42.5611C43.0189 5.80221 46.4354 5.94176 46.4354 10.9707C46.4354 13.5992 45.2725 15.2573 43.908 15.9227V15.9227ZM26.9006 22.3342L28.5073 8.44993L30.1743 22.3342H26.9006ZM78.1664 5.92699V0.00516938H61.7346L59.0298 19.7832L56.3581 0.00443667H50.4319L51.095 5.28517C50.412 3.93212 47.9862 0.00443667 42.6458 0.00443667C42.6112 0.0029048 36.7137 0.00443667 36.7137 0.00443667L36.6908 28.8321L32.372 0.00516938L24.6109 0.00151485L20.142 29.8691L20.1435 0.00520534H12.7165L10.039 16.7831L7.43061 0.00442319H0V32.4762H5.85116V16.8245L8.514 32.4762H11.6243L14.2481 16.8245V32.4762H25.5287L26.2117 27.482H30.7528L31.4351 32.4762L42.5096 32.4821H42.517V32.4762H42.5317V21.9369L43.8897 21.7374L46.6989 32.4836H52.4279L52.4264 32.4761H52.4426L48.7546 19.8851C50.6225 18.4966 52.7334 14.9781 52.1718 11.6109V11.6094C52.1777 11.6523 55.6523 32.4968 55.6523 32.4968L62.4647 32.4769L67.1213 3.04504V32.4769H78.1664V26.6363H72.9232V19.1916H78.1664V13.2609H72.9232V5.92618H78.1664L78.1664 5.92699Z" fill="#FE0000"/>
    </svg>
    