<svg width="2842" height="2118" viewBox="0 0 2842 2118" fill="none" xmlns="http://www.w3.org/2000/svg">
    <path d="M2254.09 1078.59C2334.26 1204.21 2368.4 1357.67 2330.17 1495.22C2281.48 1670.32 2098.76 1819.86 1903.08 1767.31C1817.46 1744.58 1741.05 1695.15 1665.03 1648.79C1550.37 1578.85 1432.08 1513.17 1305.61 1468.8C1185.28 1426.59 1055.63 1431.87 931.37 1421.07C825.239 1411.87 717.119 1393.58 621.897 1343.46C397.703 1225.4 292.083 903.94 343.785 680.087C400.998 432.088 623.09 258.289 888.418 270.561C1015.66 277.173 1137.55 323.868 1236.64 403.964C1362.43 506.232 1454.36 692.302 1622.98 733.494C1730.93 759.856 1823.2 757.924 1927.34 806.104C2035.29 856.101 2134.95 927.007 2210.4 1018.76C2226.14 1037.82 2240.73 1057.8 2254.09 1078.59V1078.59Z" fill="#E96A6A" />
    <path opacity="0.9" d="M2254.09 1078.59C2334.26 1204.21 2368.4 1357.67 2330.17 1495.22C2281.48 1670.32 2098.76 1819.86 1903.08 1767.31C1817.46 1744.58 1741.05 1695.15 1665.03 1648.79C1550.37 1578.85 1432.08 1513.17 1305.61 1468.8C1185.28 1426.59 1055.63 1431.87 931.37 1421.07C825.239 1411.87 717.119 1393.58 621.897 1343.46C397.703 1225.4 292.083 903.94 343.785 680.087C400.998 432.088 623.09 258.289 888.418 270.561C1015.66 277.173 1137.55 323.868 1236.64 403.964C1362.43 506.232 1454.36 692.302 1622.98 733.494C1730.93 759.856 1823.2 757.924 1927.34 806.104C2035.29 856.101 2134.95 927.007 2210.4 1018.76C2226.14 1037.82 2240.73 1057.8 2254.09 1078.59V1078.59Z" fill="white" />
    <path d="M1421.01 2117.29C2029.4 2117.29 2522.6 2088.5 2522.6 2052.98C2522.6 2017.45 2029.4 1988.66 1421.01 1988.66C812.612 1988.66 319.411 2017.45 319.411 2052.98C319.411 2088.5 812.612 2117.29 1421.01 2117.29Z" fill="#F5F5F5" />
    <path d="M2024.1 1213.7C1904.79 1226.08 1874.39 1023.54 1854.28 822.523C1973.88 855.704 2131.2 1147.62 2024.1 1213.7Z" fill="#E96A6A" />
    <path d="M2059.33 1468.8L2053.31 1468.46C2064.04 1279.38 1956.26 991.209 1911.61 908.429L1916.89 905.588C1961.83 988.823 2070.12 1278.52 2059.33 1468.8Z" fill="#263238" />
    <path d="M2097.56 1157.68C2063.19 1123.3 2056.32 1078.14 2099.89 1018.37C2143.47 958.596 2097.56 928.427 2204.95 899.054C2202.22 931.268 2248.01 969.675 2191.03 1018.37C2134.04 1067.06 2222.56 1154.33 2097.56 1157.68Z" fill="white" />
    <path d="M2096.31 1160.69L2095.4 1159.78C2056.15 1120.52 2056.83 1072.34 2097.45 1016.6C2108.65 1001.14 2116.4 983.449 2120.18 964.732C2127.34 936.325 2132.45 915.757 2204.15 896.043L2208.3 894.906L2207.96 899.224C2208.1 909.506 2210.32 919.651 2214.49 929.052C2223.3 954.108 2234.26 985.3 2193.01 1020.7C2170.97 1039.56 2171.76 1064.44 2172.56 1088.53C2173.24 1108.76 2173.87 1127.85 2160.86 1141.66C2149.49 1153.76 2129.32 1159.84 2097.62 1160.69H2096.31ZM2201.82 902.974C2137.28 921.325 2132.79 939.279 2126.03 966.21C2122.08 985.689 2114.01 1004.1 2102.34 1020.18C2064.04 1072.68 2062.85 1117.91 2098.76 1154.61C2127.62 1153.7 2146.54 1148.08 2156.48 1137.56C2167.84 1125.58 2167.16 1107.74 2166.54 1088.82C2165.74 1064.5 2164.83 1036.94 2189.26 1016.15C2227.39 983.481 2218.01 956.835 2208.92 930.927C2205.19 922.011 2202.8 912.591 2201.82 902.974V902.974Z" fill="#263238" />
    <path d="M2073.36 1603.96C2033.59 1417.61 2096.83 1114.73 2128.59 1025.64L2134.27 1027.68C2102.68 1116.32 2039.95 1417.49 2079.27 1602.71L2073.36 1603.96Z" fill="#263238" />
    <path d="M2150.74 2002.81L2083.7 1406.25C2085.67 1405.29 2087.25 1403.7 2088.2 1401.73C2089.15 1399.76 2089.39 1397.53 2088.91 1395.4C2088.42 1393.26 2087.22 1391.36 2085.51 1390C2083.8 1388.64 2081.68 1387.89 2079.5 1387.89H2047.91C2045.72 1387.89 2043.6 1388.64 2041.89 1390C2040.18 1391.36 2038.99 1393.26 2038.5 1395.4C2038.01 1397.53 2038.26 1399.76 2039.2 1401.73C2040.15 1403.7 2041.74 1405.29 2043.7 1406.25L1976.66 2002.81C1976.23 2006.65 1976.61 2010.55 1977.79 2014.23C1978.97 2017.92 1980.91 2021.32 1983.49 2024.2C1986.07 2027.09 1989.23 2029.4 1992.76 2030.98C1996.29 2032.56 2000.12 2033.37 2003.99 2033.37H2123.3C2127.18 2033.39 2131.02 2032.59 2134.57 2031.01C2138.11 2029.44 2141.29 2027.13 2143.88 2024.25C2146.47 2021.36 2148.42 2017.96 2149.61 2014.26C2150.79 2010.57 2151.18 2006.66 2150.74 2002.81V2002.81Z" fill="#E96A6A" />
    <path d="M1581.51 2039.96H1560.38L1455.95 1683.16H1178.35L1073.98 2039.96H1052.84L1163.12 1662.88H1471.12L1581.51 2039.96Z" fill="#E96A6A" />
    <path opacity="0.3" d="M1581.51 2039.96H1560.38L1455.95 1683.16H1178.35L1073.98 2039.96H1052.84L1163.12 1662.88H1471.12L1581.51 2039.96Z" fill="white" />
    <path d="M850.92 1285.85L835.693 1306.14L940.12 1662.88H961.256L850.92 1285.85Z" fill="#E96A6A" />
    <path opacity="0.3" d="M850.92 1285.85L835.693 1306.14L940.12 1662.88H961.256L850.92 1285.85Z" fill="white" />
    <path d="M1073.92 1285.85L1058.69 1306.14L1163.12 1662.88H1184.26L1073.92 1285.85Z" fill="#E96A6A" />
    <path opacity="0.3" d="M1073.92 1285.85L1058.69 1306.14L1163.12 1662.88H1184.26L1073.92 1285.85Z" fill="white" />
    <path d="M1495.66 1693.67H923.53C918.08 1693.66 912.857 1691.49 909.003 1687.63C905.15 1683.78 902.978 1678.56 902.963 1673.11V1673.11C902.978 1667.66 905.15 1662.43 909.003 1658.58C912.857 1654.73 918.08 1652.56 923.53 1652.54H1495.66C1501.11 1652.56 1506.33 1654.73 1510.19 1658.58C1514.04 1662.43 1516.21 1667.66 1516.23 1673.11V1673.11C1516.21 1678.56 1514.04 1683.78 1510.19 1687.63C1506.33 1691.49 1501.11 1693.66 1495.66 1693.67V1693.67Z" fill="#E96A6A" />
    <path d="M1358.45 2039.96H1337.32L1232.89 1683.16H955.29L850.977 2039.96H829.842L940.121 1662.88H1248.12L1358.45 2039.96Z" fill="#E96A6A" />
    <path opacity="0.3" d="M1358.45 2039.96H1337.32L1232.89 1683.16H955.29L850.977 2039.96H829.842L940.121 1662.88H1248.12L1358.45 2039.96Z" fill="white" />
    <path d="M727.119 1261.88C724.138 1252.13 723.458 1241.82 725.134 1231.77C726.81 1221.71 730.796 1212.18 736.778 1203.93C742.771 1196.27 750.482 1190.14 759.287 1186.02C768.092 1181.91 777.743 1179.92 787.457 1180.23H855.238V1185.91H787.457C778.618 1185.65 769.839 1187.46 761.82 1191.19C753.801 1194.91 746.763 1200.46 741.267 1207.39C735.836 1214.96 732.23 1223.69 730.732 1232.88C729.234 1242.08 729.884 1251.5 732.631 1260.4L727.119 1261.88Z" fill="#E96A6A" />
    <path d="M739.325 1285.05L733.844 1286.54L743.841 1323.21L749.323 1321.72L739.325 1285.05Z" fill="#E96A6A" />
    <path d="M1189.48 1577.03H890.123C859.045 1577.03 826.661 1551.58 818.195 1520.22L746.324 1256.76C737.858 1225.69 756.323 1199.95 787.458 1199.95H1086.82C1117.9 1199.95 1150.28 1225.4 1158.75 1256.76L1230.62 1520.5C1239.2 1551.64 1220.56 1577.03 1189.48 1577.03Z" fill="#E96A6A" />
    <path opacity="0.1" d="M1182.78 1570.73H912.735C882.68 1570.73 851.431 1546.18 843.25 1516.13L773.765 1261.14C765.583 1231.14 783.423 1206.54 813.535 1206.54H1083.52C1113.58 1206.54 1144.88 1231.14 1153.06 1261.14L1222.55 1516.13C1230.73 1545.95 1212.83 1570.73 1182.78 1570.73Z" fill="white" />
    <path d="M1151.99 452.37C1151.24 447.517 1149.55 442.857 1147.01 438.657C1144.47 434.457 1141.12 430.798 1137.16 427.891C1133.21 424.984 1128.72 422.885 1123.95 421.714C1119.18 420.543 1114.23 420.322 1109.37 421.065H1108.52C1095.45 423.11 1081.08 425.156 1067.39 426.747C1053.69 428.337 1039.72 430.042 1026.2 431.121C1013.27 432.2 1000.3 432.56 987.334 432.201C982.052 432.036 976.791 431.466 971.596 430.496L968.812 429.928C968.528 429.019 968.301 428.11 968.017 427.201C966.312 421.52 964.835 415.156 963.585 408.85C961.139 395.706 959.507 382.424 958.699 369.079C957.676 355.5 957.449 341.637 957.563 327.661C957.676 313.684 958.415 299.253 959.21 285.844V284.708C959.435 280.289 958.084 275.933 955.399 272.416C952.714 268.899 948.868 266.448 944.545 265.501C940.223 264.553 935.704 265.169 931.794 267.241C927.883 269.312 924.834 272.703 923.189 276.811C917.584 291.376 913.009 306.318 909.497 321.524C905.942 336.763 903.342 352.209 901.713 367.772C900.069 383.797 899.708 399.927 900.634 416.009C901.145 424.247 901.997 432.599 903.361 441.007C904.213 445.269 904.895 449.246 906.088 454.075L906.94 457.541V458.393C906.94 458.677 907.395 459.756 907.622 460.381C907.849 461.006 908.758 463.336 909.44 464.813C911.705 469.52 914.654 473.866 918.19 477.71C923.598 483.53 930.031 488.306 937.166 491.8C942.338 494.396 947.74 496.507 953.302 498.107C962.34 500.657 971.577 502.443 980.914 503.447C997.179 505.156 1013.55 505.669 1029.89 504.982C1045.63 504.47 1061.02 503.163 1076.31 501.402C1091.59 499.641 1106.31 497.368 1122.1 494.13C1131.47 492.29 1139.77 486.942 1145.33 479.181C1150.88 471.419 1153.26 461.829 1151.99 452.37Z" fill="#FFB573" />
    <path d="M1175.28 390.896C1112.44 399.986 1051.65 423.906 985.119 425.44C983.357 466.915 1004.38 537.991 1033.47 559.297C1126.36 536.968 1222.15 501.175 1175.28 390.896Z" fill="#E96A6A" />
    <path opacity="0.2" d="M1087.9 472.142C1070.43 497.183 1057.93 525.342 1051.08 555.093C1065.17 551.456 1079.15 547.366 1092.39 542.65L1087.9 472.142Z" fill="black" />
    <g opacity="0.3">
        <path opacity="0.3" d="M1050.23 512.879C1046.57 514.359 1042.48 514.329 1038.85 512.795C1035.22 511.261 1032.34 508.349 1030.86 504.698L1022.39 508.107C1024.77 514.006 1029.4 518.718 1035.25 521.206C1038.15 522.438 1041.26 523.086 1044.41 523.115C1047.56 523.144 1050.69 522.552 1053.61 521.373C1056.53 520.194 1059.19 518.451 1061.44 516.244C1063.69 514.038 1065.48 511.409 1066.71 508.51C1067.94 505.611 1068.59 502.498 1068.62 499.348C1068.65 496.199 1068.06 493.074 1066.88 490.153L1058.41 493.562C1059.87 497.21 1059.83 501.288 1058.3 504.907C1056.77 508.525 1053.87 511.391 1050.23 512.879V512.879Z" fill="white" />
        <path opacity="0.3" d="M1057.73 431.804L1066.08 435.383C1067.49 432.087 1068.14 428.513 1067.97 424.932C1067.8 421.35 1066.83 417.853 1065.12 414.702L1055.63 416.691C1057.31 418.786 1058.39 421.297 1058.76 423.957C1059.13 426.618 1058.77 429.329 1057.73 431.804V431.804Z" fill="white" />
        <path opacity="0.3" d="M1116.02 432.372L1110.34 439.587C1112.84 441.508 1115.69 442.919 1118.73 443.739C1121.77 444.559 1124.94 444.772 1128.06 444.366C1131.19 443.959 1134.2 442.942 1136.93 441.372C1139.66 439.801 1142.05 437.708 1143.97 435.212C1145.9 432.717 1147.31 429.867 1148.13 426.826C1148.95 423.785 1149.16 420.612 1148.75 417.489C1148.35 414.366 1147.33 411.353 1145.76 408.623C1144.19 405.893 1142.1 403.499 1139.6 401.578L1133.92 408.793C1135.57 409.945 1136.97 411.419 1138.03 413.127C1139.1 414.835 1139.81 416.741 1140.11 418.731C1140.42 420.72 1140.32 422.751 1139.82 424.701C1139.32 426.651 1138.43 428.479 1137.21 430.075C1135.98 431.671 1134.44 433.001 1132.69 433.986C1130.93 434.971 1128.99 435.589 1126.99 435.804C1124.99 436.018 1122.97 435.825 1121.04 435.235C1119.12 434.645 1117.33 433.671 1115.79 432.372H1116.02Z" fill="white" />
        <path opacity="0.3" d="M1119.2 499.925C1116.51 504.61 1115.48 510.069 1116.28 515.414C1117.09 520.758 1119.68 525.672 1123.63 529.356C1126.63 527.879 1129.58 526.344 1132.5 524.754C1129.3 522.676 1127.02 519.449 1126.13 515.739C1125.24 512.028 1125.81 508.118 1127.72 504.815C1129.63 501.512 1132.73 499.068 1136.39 497.989C1140.05 496.91 1143.99 497.278 1147.38 499.016L1151.93 491.119C1146.42 487.966 1139.88 487.122 1133.75 488.772C1127.62 490.422 1122.39 494.432 1119.2 499.925V499.925Z" fill="white" />
    </g>
    <path d="M919.269 305.73C920.944 307.406 923.158 308.432 925.519 308.628L945.973 310.559C947.918 310.759 949.88 310.394 951.624 309.507C953.367 308.621 954.818 307.25 955.802 305.56L964.722 290.674C973.369 276.186 978.795 260.005 980.63 243.233L981.198 237.551C981.457 235.28 981.256 232.98 980.608 230.788C979.96 228.596 978.877 226.557 977.425 224.792C975.973 223.027 974.18 221.572 972.154 220.513C970.128 219.455 967.909 218.815 965.631 218.632L944.609 216.814C940.574 216.496 936.557 217.625 933.278 219.999C929.999 222.372 927.671 225.835 926.712 229.768L920.576 253.744C920.576 253.744 903.986 290.333 919.269 305.73Z" fill="#FFB573" />
    <path d="M1247.26 379.476C1186.98 385.158 1141.47 393.964 1096.59 431.349C1064.6 457.995 1060.8 485.948 1069.6 553.729C1080.97 640.77 1120.23 799.967 1178.06 879.623C1316.98 883.656 1436.01 798.945 1436.01 798.945C1431.4 768.037 1391.18 674.689 1368.28 625.26C1362.09 568.785 1378.45 530.946 1363.11 456.972C1350.1 394.419 1298.29 374.533 1247.26 379.476Z" fill="#E96A6A" />
    <g opacity="0.3">
        <path opacity="0.3" d="M1116.53 607.193L1110.85 614.124C1115.69 618.195 1121.94 620.19 1128.24 619.676C1134.54 619.161 1140.39 616.178 1144.5 611.376C1148.61 606.573 1150.66 600.341 1150.2 594.035C1149.74 587.729 1146.81 581.86 1142.04 577.706L1136.08 584.637C1137.57 585.905 1138.8 587.455 1139.69 589.198C1140.58 590.941 1141.13 592.843 1141.28 594.795C1141.44 596.747 1141.21 598.711 1140.61 600.575C1140.01 602.439 1139.05 604.167 1137.78 605.659C1136.51 607.151 1134.96 608.379 1133.22 609.272C1131.48 610.165 1129.58 610.706 1127.62 610.865C1125.67 611.023 1123.71 610.795 1121.84 610.194C1119.98 609.594 1118.25 608.632 1116.76 607.363L1116.53 607.193Z" fill="white" />
        <path opacity="0.3" d="M1137.38 700.995C1142.37 697.066 1145.6 691.318 1146.36 685.012C1147.11 678.706 1145.34 672.358 1141.42 667.36L1134.2 673.042C1135.41 674.575 1136.3 676.331 1136.82 678.208C1137.35 680.086 1137.5 682.049 1137.27 683.985C1137.04 685.922 1136.43 687.793 1135.47 689.493C1134.52 691.193 1133.24 692.688 1131.7 693.893C1130.17 695.098 1128.41 695.989 1126.54 696.516C1124.66 697.042 1122.7 697.194 1120.76 696.962C1118.82 696.73 1116.95 696.118 1115.25 695.163C1113.55 694.207 1112.06 692.927 1110.85 691.393L1103.69 697.075C1107.65 702.051 1113.41 705.258 1119.73 705.993C1126.04 706.728 1132.39 704.93 1137.38 700.995V700.995Z" fill="white" />
        <path opacity="0.3" d="M1199.94 674.973C1197.85 677.371 1196.25 680.162 1195.25 683.183C1194.25 686.203 1193.86 689.393 1194.1 692.566C1194.34 695.739 1195.22 698.831 1196.67 701.664C1198.12 704.496 1200.12 707.011 1202.55 709.062L1208.23 702.188C1205.22 699.619 1203.35 695.958 1203.04 692.01C1202.72 688.062 1203.99 684.151 1206.56 681.138C1209.13 678.124 1212.79 676.254 1216.74 675.94C1220.68 675.626 1224.59 676.893 1227.61 679.462L1233.29 672.587C1228.51 668.564 1222.36 666.562 1216.13 667.007C1209.9 667.453 1204.09 670.311 1199.94 674.973V674.973Z" fill="white" />
        <path opacity="0.3" d="M1235.79 585.205L1227.78 589.523C1228.74 591.245 1229.35 593.141 1229.57 595.101C1229.79 597.061 1229.62 599.045 1229.07 600.939C1228.52 602.833 1227.6 604.598 1226.36 606.133C1225.12 607.667 1223.59 608.94 1221.85 609.878C1220.12 610.815 1218.21 611.398 1216.25 611.593C1214.29 611.788 1212.31 611.591 1210.42 611.013C1208.54 610.436 1206.78 609.489 1205.27 608.229C1203.75 606.968 1202.5 605.418 1201.59 603.67L1193.57 607.988C1195.03 610.826 1197.04 613.345 1199.48 615.398C1201.92 617.45 1204.74 618.996 1207.79 619.943C1210.83 620.89 1214.04 621.22 1217.21 620.914C1220.39 620.608 1223.47 619.672 1226.27 618.16C1229.08 616.648 1231.56 614.592 1233.56 612.11C1235.57 609.629 1237.06 606.773 1237.94 603.709C1238.83 600.646 1239.09 597.436 1238.72 594.269C1238.35 591.101 1237.36 588.039 1235.79 585.262V585.205Z" fill="white" />
        <path opacity="0.3" d="M1122.67 749.345L1118.07 755.31C1118.46 756.39 1118.86 757.469 1119.2 758.549C1121.66 761.335 1122.96 764.951 1122.84 768.662L1127.78 781.73C1131.23 776.7 1132.62 770.542 1131.67 764.52C1130.72 758.498 1127.5 753.068 1122.67 749.345Z" fill="white" />
        <path opacity="0.3" d="M1195.16 879.623L1200.05 873.941C1197.04 871.38 1195.16 867.726 1194.85 863.784C1194.53 859.841 1195.79 855.933 1198.35 852.92C1200.91 849.906 1204.56 848.033 1208.5 847.714C1212.45 847.394 1216.35 848.654 1219.37 851.215L1225.33 844.284C1220.62 840.245 1214.53 838.194 1208.34 838.564C1202.14 838.934 1196.34 841.696 1192.14 846.268C1187.95 850.839 1185.69 856.861 1185.85 863.064C1186.01 869.266 1188.58 875.163 1193.01 879.509L1195.16 879.623Z" fill="white" />
        <path opacity="0.3" d="M1204.43 764.571C1207.6 762.233 1211.57 761.248 1215.47 761.834C1219.37 762.42 1222.88 764.528 1225.22 767.696L1232.55 762.015C1228.68 757.198 1223.09 754.063 1216.96 753.266C1210.83 752.468 1204.63 754.07 1199.65 757.735C1194.67 761.401 1191.3 766.847 1190.25 772.938C1189.19 779.029 1190.52 785.293 1193.97 790.422L1201.3 784.741C1199.17 781.609 1198.3 777.784 1198.88 774.039C1199.46 770.295 1201.45 766.91 1204.43 764.571V764.571Z" fill="white" />
        <path opacity="0.3" d="M1065.63 510.493C1067.33 507.408 1068.33 503.982 1068.54 500.464C1068.76 496.946 1068.19 493.423 1066.88 490.153L1065.97 490.494C1065.5 497.149 1065.39 503.825 1065.63 510.493V510.493Z" fill="white" />
        <path opacity="0.3" d="M1134.15 408.793C1135.8 409.944 1137.2 411.419 1138.26 413.127C1139.33 414.835 1140.03 416.741 1140.34 418.731C1140.65 420.72 1140.55 422.751 1140.05 424.701C1139.55 426.651 1138.66 428.479 1137.43 430.075C1136.21 431.671 1134.67 433.001 1132.91 433.986C1131.16 434.97 1129.22 435.589 1127.22 435.803C1125.22 436.018 1123.19 435.825 1121.27 435.235C1119.34 434.645 1117.56 433.671 1116.02 432.371L1110.34 439.587C1115.22 443.305 1121.35 445.003 1127.45 444.33C1133.55 443.657 1139.16 440.664 1143.12 435.971C1147.07 431.278 1149.07 425.243 1148.7 419.116C1148.33 412.99 1145.62 407.239 1141.13 403.055L1136.93 405.043L1134.15 408.793Z" fill="white" />
        <path opacity="0.3" d="M1119.2 499.925C1116.03 505.433 1115.18 511.974 1116.83 518.11C1118.48 524.246 1122.5 529.476 1128.01 532.65L1132.55 524.753C1129.14 522.787 1126.65 519.545 1125.63 515.741C1124.6 511.937 1125.13 507.883 1127.1 504.47C1129.07 501.057 1132.31 498.565 1136.11 497.542C1139.92 496.519 1143.97 497.049 1147.38 499.016L1151.93 491.118C1146.42 487.965 1139.88 487.121 1133.75 488.771C1127.62 490.422 1122.39 494.431 1119.2 499.925V499.925Z" fill="white" />
        <path opacity="0.3" d="M1208.57 499.3C1204.43 504.122 1202.37 510.392 1202.85 516.732C1203.33 523.071 1206.31 528.961 1211.13 533.105L1217.1 526.23C1214.08 523.669 1212.21 520.015 1211.89 516.073C1211.57 512.13 1212.83 508.222 1215.39 505.209C1217.95 502.195 1221.61 500.322 1225.55 500.003C1229.49 499.683 1233.4 500.943 1236.41 503.504L1242.09 496.629C1237.28 492.574 1231.06 490.58 1224.79 491.08C1218.51 491.58 1212.69 494.533 1208.57 499.3V499.3Z" fill="white" />
        <path opacity="0.3" d="M1216.02 409.645C1210.92 413.439 1207.54 419.094 1206.6 425.375C1205.67 431.656 1207.25 438.052 1211.02 443.166L1218.35 437.485C1217.19 435.918 1216.35 434.138 1215.87 432.247C1215.4 430.355 1215.31 428.389 1215.59 426.461C1216.17 422.566 1218.28 419.062 1221.44 416.719C1224.61 414.376 1228.57 413.386 1232.47 413.966C1236.36 414.547 1239.87 416.651 1242.21 419.815L1249.54 414.134C1245.67 409.12 1239.98 405.836 1233.7 404.995C1227.42 404.155 1221.07 405.826 1216.02 409.645V409.645Z" fill="white" />
        <path opacity="0.3" d="M1294.71 592.193C1289.81 596.248 1286.73 602.075 1286.12 608.399C1285.51 614.723 1287.44 621.031 1291.47 625.942L1298.51 620.26C1296.52 617.204 1295.72 613.522 1296.26 609.913C1296.8 606.304 1298.65 603.021 1301.46 600.686C1304.26 598.351 1307.82 597.128 1311.47 597.249C1315.12 597.369 1318.59 598.826 1321.24 601.341L1328.23 595.659C1324.21 590.801 1318.45 587.715 1312.18 587.066C1305.91 586.418 1299.63 588.259 1294.71 592.193V592.193Z" fill="white" />
        <path opacity="0.3" d="M1325.1 704.233C1325.71 701.144 1325.71 697.965 1325.1 694.877C1324.48 691.789 1323.26 688.853 1321.51 686.236C1319.76 683.619 1317.51 681.373 1314.89 679.626C1312.27 677.879 1309.33 676.664 1306.24 676.053C1303.15 675.441 1299.97 675.443 1296.88 676.06C1293.8 676.677 1290.86 677.896 1288.24 679.648C1285.63 681.399 1283.38 683.649 1281.63 686.269C1279.89 688.888 1278.67 691.827 1278.06 694.915L1286.98 696.677C1287.96 693.044 1290.28 689.918 1293.48 687.928C1296.67 685.938 1300.5 685.233 1304.2 685.953C1307.89 686.673 1311.18 688.765 1313.39 691.809C1315.6 694.853 1316.58 698.622 1316.13 702.358L1325.1 704.233Z" fill="white" />
        <path opacity="0.3" d="M1386.92 677.36C1383.84 678.008 1380.91 679.258 1378.31 681.037C1375.71 682.815 1373.49 685.089 1371.77 687.727C1370.05 690.365 1368.87 693.316 1368.29 696.411C1367.71 699.507 1367.75 702.686 1368.4 705.767L1377.32 703.892C1376.51 700.059 1377.25 696.06 1379.38 692.77C1381.5 689.481 1384.85 687.168 1388.68 686.336C1390.78 685.881 1392.95 685.881 1395.04 686.336C1393.68 683.155 1392.37 680.03 1391.01 676.905C1389.63 676.897 1388.26 677.049 1386.92 677.36V677.36Z" fill="white" />
        <path opacity="0.3" d="M1297.32 762.753L1294.25 754.117C1291.27 755.162 1288.52 756.784 1286.16 758.891C1283.8 760.998 1281.88 763.549 1280.51 766.398C1279.14 769.247 1278.34 772.338 1278.17 775.495C1277.99 778.652 1278.44 781.813 1279.48 784.797C1280.52 787.782 1282.15 790.531 1284.25 792.889C1286.36 795.246 1288.91 797.166 1291.76 798.538C1294.61 799.909 1297.7 800.706 1300.86 800.884C1304.01 801.061 1307.18 800.614 1310.16 799.57L1307.15 790.934C1305.31 791.579 1303.36 791.856 1301.42 791.748C1299.47 791.641 1297.56 791.151 1295.81 790.307C1294.05 789.463 1292.48 788.281 1291.18 786.828C1289.88 785.376 1288.87 783.682 1288.23 781.843C1287.58 780.004 1287.31 778.056 1287.41 776.11C1287.52 774.163 1288.01 772.257 1288.86 770.501C1289.7 768.744 1290.88 767.17 1292.33 765.87C1293.79 764.57 1295.48 763.569 1297.32 762.924V762.753Z" fill="white" />
        <path opacity="0.3" d="M1306.18 852.806C1301.35 848.67 1295.08 846.621 1288.74 847.111C1282.4 847.602 1276.51 850.59 1272.38 855.419L1279.31 861.101C1281.88 858.114 1285.53 856.269 1289.46 855.971C1293.39 855.673 1297.28 856.945 1300.27 859.51C1301.01 860.172 1301.7 860.894 1302.32 861.669L1311.3 858.885C1309.96 856.574 1308.23 854.516 1306.18 852.806Z" fill="white" />
        <path opacity="0.3" d="M1386.92 768.776C1381.08 766.267 1374.5 766.174 1368.59 768.517C1362.69 770.861 1357.96 775.449 1355.44 781.275L1363.79 784.911C1364.57 783.12 1365.68 781.499 1367.08 780.141C1368.48 778.782 1370.13 777.712 1371.95 776.992C1373.76 776.271 1375.69 775.915 1377.64 775.943C1379.59 775.972 1381.52 776.384 1383.31 777.156C1385.1 777.928 1386.72 779.045 1388.08 780.444C1389.44 781.843 1390.51 783.495 1391.23 785.308C1391.95 787.12 1392.31 789.056 1392.28 791.006C1392.25 792.956 1391.84 794.881 1391.06 796.672L1399.42 800.308C1400.67 797.417 1401.34 794.308 1401.39 791.158C1401.43 788.009 1400.86 784.88 1399.7 781.952C1398.54 779.023 1396.81 776.352 1394.62 774.092C1392.43 771.831 1389.81 770.024 1386.92 768.776V768.776Z" fill="white" />
        <path opacity="0.3" d="M1314.31 414.986L1311.3 406.407C1305.27 408.509 1300.32 412.919 1297.55 418.667C1294.77 424.416 1294.39 431.031 1296.5 437.059C1298.6 443.086 1303.01 448.031 1308.76 450.807C1314.5 453.583 1321.12 453.961 1327.15 451.859L1324.14 443.28C1320.47 444.373 1316.52 444.012 1313.11 442.272C1309.71 440.531 1307.1 437.546 1305.84 433.934C1304.57 430.323 1304.75 426.364 1306.32 422.878C1307.9 419.391 1310.76 416.647 1314.31 415.213V414.986Z" fill="white" />
        <path opacity="0.3" d="M1323.23 504.925C1318.4 500.789 1312.12 498.74 1305.78 499.231C1299.44 499.721 1293.56 502.709 1289.42 507.538L1296.35 513.504C1297.62 512.012 1299.17 510.784 1300.91 509.891C1302.66 508.997 1304.56 508.456 1306.51 508.298C1308.46 508.14 1310.43 508.367 1312.29 508.968C1314.16 509.569 1315.88 510.531 1317.38 511.799C1318.87 513.068 1320.1 514.618 1320.99 516.361C1321.88 518.103 1322.42 520.005 1322.58 521.957C1322.74 523.909 1322.51 525.873 1321.91 527.737C1321.31 529.601 1320.35 531.329 1319.08 532.821L1326.01 538.503C1330.03 533.653 1331.99 527.422 1331.47 521.146C1330.95 514.87 1327.99 509.047 1323.23 504.925V504.925Z" fill="white" />
    </g>
    <path d="M1483.5 549.638L1482.48 547.65C1473.17 530.51 1461.84 514.546 1448.73 500.095C1436.7 486.563 1423.83 473.793 1410.21 461.859C1396.97 450.041 1383.17 439.132 1369.13 428.622C1362.09 423.395 1354.99 418.281 1347.71 413.395C1340.44 408.509 1333.34 403.85 1324.99 398.85C1320.84 396.22 1316.21 394.433 1311.37 393.591C1306.54 392.748 1301.58 392.867 1296.79 393.941C1291.99 395.015 1287.46 397.022 1283.44 399.848C1279.42 402.674 1276 406.264 1273.37 410.412C1270.74 414.561 1268.95 419.186 1268.11 424.026C1267.27 428.865 1267.39 433.822 1268.46 438.615C1269.54 443.408 1271.54 447.943 1274.37 451.96C1277.2 455.978 1280.78 459.399 1284.93 462.029L1285.5 462.427C1291.47 466.347 1298.34 471.12 1304.82 475.551C1311.3 479.983 1317.89 484.698 1324.31 489.414C1337.2 498.732 1349.82 508.447 1361.97 518.276C1374.13 528.105 1385.84 538.389 1396.46 548.9C1402.69 555.065 1408.58 561.551 1414.13 568.331C1412.54 570.786 1410.79 573.139 1408.9 575.376C1401.6 584.101 1393.54 592.162 1384.81 599.466C1375.72 607.306 1365.84 614.863 1355.61 622.192C1345.38 629.521 1334.53 636.793 1324.36 643.498L1323.45 644.123C1319.8 646.579 1317.14 650.245 1315.92 654.474C1314.71 658.703 1315.03 663.225 1316.82 667.244C1318.61 671.262 1321.76 674.52 1325.72 676.443C1329.68 678.366 1334.19 678.832 1338.45 677.757C1365.92 670.532 1392.32 659.72 1416.97 645.6C1430.18 638.098 1442.54 629.203 1453.85 619.067C1467.72 606.969 1478.44 591.683 1485.09 574.524C1486.59 570.496 1487.22 566.199 1486.95 561.912C1486.67 557.625 1485.5 553.443 1483.5 549.638V549.638Z" fill="#FFB573" />
    <path d="M1362.71 669.746C1363.51 667.504 1363.51 665.057 1362.71 662.815L1355.33 643.668C1354.61 641.852 1353.4 640.272 1351.84 639.107C1350.27 637.942 1348.41 637.239 1346.46 637.078L1329.42 635.828C1312.58 634.521 1295.65 636.906 1279.82 642.816L1274.59 644.748C1272.45 645.534 1270.48 646.743 1268.81 648.304C1267.14 649.865 1265.81 651.745 1264.88 653.834C1263.95 655.922 1263.45 658.175 1263.41 660.46C1263.37 662.745 1263.8 665.014 1264.65 667.133L1272.38 686.734C1273.86 690.532 1276.64 693.675 1280.24 695.593C1283.84 697.511 1288 698.077 1291.98 697.188L1316.18 691.961C1316.18 691.961 1355.73 690.086 1362.71 669.746Z" fill="#FFB573" />
    <path d="M1180.96 281.811L1131.76 365.216C1156.87 392.089 1151.59 412.543 1134.2 428.962C1136.25 434.879 1139.74 440.193 1144.35 444.428C1148.96 448.662 1154.55 451.684 1160.62 453.223C1192.95 438.451 1232.44 413.054 1238.4 386.976C1227.21 373.34 1188.52 316.468 1180.96 281.811Z" fill="#FFB573" />
    <path opacity="0.2" d="M1157.5 321.127L1131.7 365.216C1137.2 370.782 1141.75 377.212 1145.17 384.249C1158.52 373.795 1168.52 365.159 1168.52 343.115C1168.48 338.852 1167.47 334.654 1165.56 330.843C1163.65 327.032 1160.89 323.709 1157.5 321.127V321.127Z" fill="black" />
    <path d="M1038.47 216.871C1034.04 247.778 1021.42 265.561 1010.86 271.129C1015.75 273.48 1021.13 274.643 1026.56 274.525C1031.99 274.406 1037.32 273.01 1042.1 270.448C1042.1 270.448 1031.02 298.174 1015.23 309.253C1066.36 322.434 1104.03 279.708 1099.83 258.857C1095.62 238.006 1038.47 216.871 1038.47 216.871Z" fill="#263238" />
    <path d="M1160.39 234.256C1176.47 278.345 1188.12 303.401 1175.85 334.706C1157.44 381.863 1095.57 384.76 1066.59 346.069C1040.51 311.355 1018.64 245.051 1053.52 209.712C1061.27 201.951 1070.86 196.287 1081.4 193.253C1091.94 190.22 1103.07 189.916 1113.76 192.37C1124.45 194.824 1134.34 199.957 1142.49 207.284C1150.65 214.611 1156.81 223.893 1160.39 234.256V234.256Z" fill="#FFB573" />
    <path d="M1203.01 238.744C1205.22 216.586 1196.93 187.611 1178.92 178.975C1185.75 177.079 1192.75 175.879 1199.82 175.395C1188.21 171.231 1175.7 170.231 1163.58 172.498C1164.54 156.305 1131.87 136.931 1131.87 136.931C1138.14 145.445 1142.06 155.457 1143.24 165.964C1098.64 137.556 1036.2 161.589 1036.2 161.589C1049.55 162.676 1062.64 165.859 1075 171.02C1047.39 168.18 1003.47 187.27 973.926 206.587C995.686 203.121 1027.9 212.78 1027.9 212.78C1027.9 212.78 1022.9 229.029 997.731 241.528C1028.04 245.662 1058.75 237.703 1083.24 219.37C1076.88 229.597 1078.98 246.301 1078.98 246.301C1078.98 246.301 1110.45 223.234 1138.86 227.722C1141.25 239.085 1124.54 251.926 1124.54 251.926C1131.31 257.241 1139.3 260.794 1147.78 262.266C1142.73 264.662 1137.32 266.18 1131.76 266.754C1131.76 266.754 1139.77 280.617 1162.61 276.356C1172.04 286.185 1170 306.355 1194.43 305.673C1183.92 288.628 1201.13 263.005 1203.01 238.744Z" fill="#263238" />
    <path d="M1190.62 262.266C1191.02 267.583 1190.36 272.926 1188.68 277.986C1187 283.047 1184.34 287.726 1180.85 291.753C1171.42 302.491 1158.8 295.958 1154.83 283.06C1151.3 271.697 1151.87 251.812 1164.54 245.79C1167.33 244.528 1170.38 243.978 1173.43 244.19C1176.48 244.401 1179.44 245.367 1182.02 247C1184.61 248.634 1186.75 250.884 1188.25 253.548C1189.75 256.213 1190.56 259.208 1190.62 262.266V262.266Z" fill="#FFB573" />
    <path d="M1110.4 269.652C1111.93 273.174 1111.31 276.811 1108.98 277.776C1106.65 278.742 1103.29 276.697 1102.1 273.174C1100.91 269.652 1101.19 266.072 1103.46 265.107C1105.74 264.141 1108.86 266.186 1110.4 269.652Z" fill="#263238" />
    <path d="M1068.75 285.163C1070.23 288.685 1069.6 292.265 1067.33 293.287C1065.06 294.31 1061.93 292.208 1060.4 288.685C1058.86 285.163 1059.49 281.583 1061.82 280.561C1064.15 279.538 1067.1 281.64 1068.75 285.163Z" fill="#263238" />
    <path d="M1075.63 286.924C1076.06 299.406 1074.78 311.889 1071.82 324.024C1074.96 324.712 1078.21 324.707 1081.35 324.01C1084.49 323.314 1087.44 321.942 1090 319.99L1075.63 286.924Z" fill="#ED893E" />
    <path d="M1097.16 243.631C1096.85 243.769 1096.57 243.984 1096.36 244.256C1096.17 244.446 1096.02 244.671 1095.92 244.92C1095.81 245.169 1095.76 245.435 1095.76 245.704C1095.76 245.974 1095.81 246.24 1095.92 246.489C1096.02 246.737 1096.17 246.963 1096.36 247.153C1098.89 249.284 1101.89 250.783 1105.11 251.524C1108.33 252.265 1111.68 252.227 1114.89 251.414C1115.15 251.338 1115.39 251.208 1115.6 251.032C1115.82 250.857 1115.99 250.639 1116.11 250.394C1116.23 250.148 1116.3 249.88 1116.32 249.606C1116.33 249.332 1116.29 249.058 1116.19 248.801C1116.01 248.287 1115.64 247.863 1115.15 247.619C1114.66 247.375 1114.1 247.331 1113.58 247.494V247.494C1111.04 248.102 1108.39 248.099 1105.85 247.487C1103.32 246.874 1100.96 245.67 1098.98 243.972C1098.72 243.776 1098.42 243.643 1098.11 243.584C1097.79 243.525 1097.47 243.541 1097.16 243.631V243.631Z" fill="#263238" />
    <path d="M1051.71 260.789C1051.38 260.961 1051.1 261.204 1050.89 261.499C1050.67 261.794 1050.52 262.134 1050.46 262.493C1050.17 265.291 1049.21 267.979 1047.67 270.332C1046.13 272.684 1044.04 274.633 1041.59 276.016C1041.07 276.273 1040.66 276.728 1040.47 277.282C1040.28 277.835 1040.32 278.442 1040.57 278.97C1040.69 279.236 1040.87 279.474 1041.08 279.673C1041.3 279.871 1041.55 280.024 1041.82 280.125C1042.1 280.225 1042.39 280.27 1042.68 280.257C1042.97 280.244 1043.26 280.174 1043.52 280.049C1046.65 278.329 1049.31 275.882 1051.29 272.915C1053.27 269.948 1054.5 266.549 1054.89 263.005C1054.93 262.713 1054.91 262.417 1054.83 262.133C1054.76 261.849 1054.63 261.583 1054.45 261.35C1054.27 261.117 1054.04 260.923 1053.79 260.778C1053.53 260.633 1053.25 260.54 1052.96 260.505C1052.52 260.463 1052.08 260.563 1051.71 260.789V260.789Z" fill="#263238" />
    <path d="M1274.71 1234.55C1324.59 1116.26 1411.75 973.993 1444.07 878.429L1243.29 847.521C1243.29 847.521 1142.61 1103.99 1152.89 1209.09C1159.94 1279.21 1334.31 1612.14 1334.31 1612.14H1386.92C1386.92 1612.14 1339.76 1319.71 1274.71 1234.55Z" fill="#263238" />
    <path d="M1237.32 1321.31L1189.82 1314.71C1203.8 1347.04 1220.45 1382.89 1237.38 1418.4C1233.35 1386.16 1233.33 1353.55 1237.32 1321.31V1321.31Z" fill="black" />
    <path d="M1206.58 950.017C1200.22 969.334 1193.57 990.242 1187.21 1011.77C1247.72 999.048 1301.3 966.948 1319.65 955.812C1276.58 953.426 1237.15 951.494 1206.58 950.017Z" fill="black" />
    <path d="M1246.92 1642.54C1246.92 1642.54 1338.97 1621.52 1339.93 1609.19H1383.45L1401.46 1655.04H1365.95L1360.27 1646.74L1354.59 1655.04C1332.94 1655.04 1262.38 1656.86 1246.64 1651.91C1244.08 1644.98 1246.92 1642.54 1246.92 1642.54Z" fill="#263238" />
    <path d="M1329.25 1619.25L1386.07 1615.61C1387.38 1615.52 1388.61 1614.94 1389.5 1613.98C1390.4 1613.02 1390.9 1611.75 1390.89 1610.44V1577.09C1390.89 1576.3 1390.71 1575.52 1390.36 1574.81C1390.01 1574.1 1389.51 1573.47 1388.88 1572.99C1388.26 1572.5 1387.53 1572.16 1386.76 1572C1385.99 1571.83 1385.19 1571.84 1384.42 1572.03L1320.1 1588.51C1319.39 1588.68 1318.73 1589 1318.15 1589.45C1317.58 1589.89 1317.1 1590.46 1316.76 1591.11C1316.43 1591.75 1316.23 1592.46 1316.19 1593.19C1316.15 1593.92 1316.26 1594.65 1316.52 1595.33L1324.14 1615.89C1324.51 1616.93 1325.22 1617.81 1326.14 1618.42C1327.06 1619.02 1328.15 1619.31 1329.25 1619.25Z" fill="#E96A6A" />
    <path opacity="0.3" d="M1329.25 1619.25L1386.07 1615.61C1387.38 1615.52 1388.61 1614.94 1389.5 1613.98C1390.4 1613.02 1390.9 1611.75 1390.89 1610.44V1577.09C1390.89 1576.3 1390.71 1575.52 1390.36 1574.81C1390.01 1574.1 1389.51 1573.47 1388.88 1572.99C1388.26 1572.5 1387.53 1572.16 1386.76 1572C1385.99 1571.83 1385.19 1571.84 1384.42 1572.03L1320.1 1588.51C1319.39 1588.68 1318.73 1589 1318.15 1589.45C1317.58 1589.89 1317.1 1590.46 1316.76 1591.11C1316.43 1591.75 1316.23 1592.46 1316.19 1593.19C1316.15 1593.92 1316.26 1594.65 1316.52 1595.33L1324.14 1615.89C1324.51 1616.93 1325.22 1617.81 1326.14 1618.42C1327.06 1619.02 1328.15 1619.31 1329.25 1619.25Z" fill="white" />
    <path d="M1093.92 980.242C1158.46 988.481 1275.73 982.515 1353.45 977.004C1438.68 970.982 1476.23 884.679 1442.43 806.046L1433.17 784.627C1433.17 784.627 978.017 821.614 949.041 916.325C928.644 982.799 1172.89 1327.04 1172.89 1327.04L1212.32 1292.16C1212.32 1292.16 1138.07 1004.67 1093.92 980.242Z" fill="#263238" />
    <path d="M1150.39 1428.18C1150.39 1428.18 1185.68 1333.24 1176.81 1320.62L1213.86 1286.54L1246.53 1323.24L1227.72 1345.96L1218.69 1345.4L1220.5 1357.84C1209.14 1371.7 1169.37 1432.1 1157.72 1437.38C1150.79 1432.32 1150.39 1428.18 1150.39 1428.18Z" fill="#263238" />
    <path d="M1180.56 1335.17L1226.7 1301.93C1227.78 1301.16 1228.52 1300.01 1228.77 1298.71C1229.03 1297.41 1228.77 1296.06 1228.06 1294.94L1210.33 1266.54C1209.92 1265.87 1209.36 1265.3 1208.69 1264.88C1208.02 1264.46 1207.26 1264.2 1206.48 1264.12C1205.7 1264.04 1204.9 1264.14 1204.16 1264.41C1203.42 1264.68 1202.76 1265.11 1202.21 1265.68L1156.42 1313.81C1155.92 1314.33 1155.54 1314.96 1155.29 1315.64C1155.05 1316.33 1154.96 1317.06 1155.02 1317.78C1155.08 1318.5 1155.29 1319.21 1155.64 1319.84C1155.99 1320.48 1156.46 1321.04 1157.04 1321.48L1174.37 1334.88C1175.24 1335.58 1176.31 1335.98 1177.42 1336.03C1178.53 1336.08 1179.63 1335.78 1180.56 1335.17Z" fill="#E96A6A" />
    <path opacity="0.3" d="M1180.56 1335.17L1226.7 1301.93C1227.78 1301.16 1228.52 1300.01 1228.77 1298.71C1229.03 1297.41 1228.77 1296.06 1228.06 1294.94L1210.33 1266.54C1209.92 1265.87 1209.36 1265.3 1208.69 1264.88C1208.02 1264.46 1207.26 1264.2 1206.48 1264.12C1205.7 1264.04 1204.9 1264.14 1204.16 1264.41C1203.42 1264.68 1202.76 1265.11 1202.21 1265.68L1156.42 1313.81C1155.92 1314.33 1155.54 1314.96 1155.29 1315.64C1155.05 1316.33 1154.96 1317.06 1155.02 1317.78C1155.08 1318.5 1155.29 1319.21 1155.64 1319.84C1155.99 1320.48 1156.46 1321.04 1157.04 1321.48L1174.37 1334.88C1175.24 1335.58 1176.31 1335.98 1177.42 1336.03C1178.53 1336.08 1179.63 1335.78 1180.56 1335.17Z" fill="white" />
    <path d="M1134.88 316.582C1131.76 322.263 1123.52 331.865 1102.16 337.547C1101.46 337.74 1100.74 337.785 1100.02 337.68C1099.31 337.575 1098.62 337.322 1098.01 336.936C1097.4 336.551 1096.88 336.042 1096.48 335.443C1096.08 334.843 1095.81 334.167 1095.68 333.456C1094.49 325.786 1097.5 317.945 1110.28 310.73C1113.62 308.497 1117.51 307.23 1121.52 307.07C1125.53 306.909 1129.51 307.861 1133.01 309.821C1134.12 310.496 1134.94 311.572 1135.29 312.829C1135.64 314.086 1135.49 315.428 1134.88 316.582V316.582Z" fill="#263238" />
    <path d="M1108.52 320.502C1114.43 317.65 1119.23 312.913 1122.16 307.037C1117.95 307.151 1113.85 308.387 1110.28 310.616C1104.36 313.45 1099.56 318.192 1096.65 324.081C1100.85 323.937 1104.94 322.704 1108.52 320.502V320.502Z" fill="white" />
    <path opacity="0.2" d="M1143.86 310.729C1143.86 310.729 1148.52 318.797 1141.08 320.331C1143.52 318.059 1143.86 310.729 1143.86 310.729Z" fill="black" />
    <path d="M1283.91 380.499C1347.43 386.181 1398.91 436.065 1449.98 477.767C1435.78 516.742 1376.63 562.536 1341.58 571.115C1264.37 514.924 1168.18 417.827 1283.91 380.499Z" fill="#E96A6A" />
    <g opacity="0.3">
        <path opacity="0.3" d="M1242.21 419.929L1249.54 414.247C1247.06 410.884 1243.73 408.253 1239.88 406.634C1237.95 409.042 1236.3 411.652 1234.94 414.417C1237.89 415.42 1240.44 417.353 1242.21 419.929V419.929Z" fill="white" />
        <path opacity="0.3" d="M1314.31 414.986L1311.3 406.407C1305.27 408.509 1300.32 412.919 1297.55 418.667C1294.77 424.416 1294.39 431.031 1296.49 437.059C1298.6 443.086 1303.01 448.031 1308.76 450.807C1314.5 453.583 1321.12 453.961 1327.15 451.859L1324.14 443.28C1320.47 444.373 1316.52 444.012 1313.11 442.272C1309.71 440.531 1307.1 437.546 1305.83 433.934C1304.57 430.323 1304.74 426.364 1306.32 422.878C1307.9 419.391 1310.76 416.647 1314.31 415.213V414.986Z" fill="white" />
        <path opacity="0.3" d="M1289.42 507.538L1296.35 513.504C1297.62 512.012 1299.17 510.784 1300.91 509.891C1302.66 508.998 1304.56 508.456 1306.51 508.298C1308.46 508.14 1310.43 508.367 1312.29 508.968C1314.16 509.569 1315.88 510.531 1317.38 511.8C1318.87 513.068 1320.1 514.618 1320.99 516.361C1321.88 518.104 1322.42 520.005 1322.58 521.957C1322.74 523.909 1322.51 525.874 1321.91 527.738C1321.31 529.602 1320.35 531.329 1319.08 532.821L1326.01 538.503C1330.08 533.665 1332.08 527.415 1331.56 521.113C1331.05 514.812 1328.06 508.968 1323.26 504.855C1318.46 500.743 1312.23 498.693 1305.92 499.153C1299.62 499.613 1293.75 502.545 1289.59 507.311L1289.42 507.538Z" fill="white" />
        <path opacity="0.3" d="M1417.03 507.254L1408.56 510.72C1410.07 514.374 1410.06 518.477 1408.55 522.126C1407.03 525.775 1404.12 528.672 1400.47 530.179C1396.81 531.686 1392.71 531.679 1389.06 530.161C1385.41 528.643 1382.52 525.737 1381.01 522.083L1372.6 525.492C1374.64 530.491 1378.31 534.655 1383.01 537.315C1387.71 539.974 1393.17 540.973 1398.51 540.15C1405.2 534.823 1411.59 529.133 1417.65 523.105C1419.25 517.904 1419.03 512.314 1417.03 507.254V507.254Z" fill="white" />
        <path opacity="0.3" d="M1389.98 428.849C1387.26 426.803 1384.3 424.701 1381.63 422.656C1377.46 425.231 1374.17 429.017 1372.2 433.508L1380.61 437.144C1381.48 435.163 1382.76 433.395 1384.38 431.963C1386 430.53 1387.91 429.468 1389.98 428.849V428.849Z" fill="white" />
        <path opacity="0.3" d="M1416.97 450.325L1409.02 443.848C1408.95 445.588 1408.56 447.301 1407.88 448.905L1416.23 452.541C1416.57 451.802 1416.69 451.064 1416.97 450.325Z" fill="white" />
    </g>
    <path d="M1739.57 2062.63C1670.2 2062.63 1720.71 1973.09 1709.51 1928.66C1697.17 1923.81 1686.12 1916.15 1677.25 1906.29C1668.37 1896.43 1661.91 1884.64 1658.38 1871.85C1658.38 1871.85 1737.41 1853.16 1769.91 1892.24C1855.93 1995.88 1849 2062.63 1739.57 2062.63Z" fill="#263238" />
    <path d="M1701.56 1880.48C1699.29 1882.13 1696.62 1882.42 1695.59 1880.99C1694.57 1879.57 1695.59 1877.13 1697.75 1875.31C1699.91 1873.5 1702.7 1873.38 1703.72 1874.75C1704.74 1876.11 1703.83 1878.78 1701.56 1880.48Z" fill="white" />
    <path d="M1799.79 1882.98C1798.83 1871.96 1786.67 1865.65 1772.69 1868.89C1758.72 1872.13 1748.09 1883.61 1749.06 1894.57C1750.02 1905.54 1762.18 1911.9 1776.16 1908.72C1790.14 1905.54 1800.76 1893.95 1799.79 1882.98Z" fill="#263238" />
    <path d="M1713.95 1860.43C1722.13 1853.04 1735.31 1856.56 1743.43 1868.44C1751.56 1880.31 1751.56 1895.88 1743.43 1903.32C1735.31 1910.77 1722.07 1907.19 1713.95 1895.37C1705.82 1883.55 1705.82 1867.87 1713.95 1860.43Z" fill="#263238" />
    <path d="M1711.28 1980.54C1680.2 1986.22 1669.4 2018.49 1691.45 2045.99C1672.13 2046.73 1657.36 2055.42 1665.88 2062.63H1739.74C1760.59 2062.63 1763.15 2037.52 1756.78 2011.78C1750.42 1986.05 1732.13 1976.79 1711.28 1980.54Z" fill="#263238" />
    <path d="M1747.3 2062.52C1783.72 2062.52 2002.97 2075.53 1912.97 2039.79C1912.97 2039.79 1959.33 2062.86 1874.79 2058.88C1814.28 2056.04 1791.9 2048.49 1791.9 2048.49L1747.3 2062.52Z" fill="#263238" />
    <path d="M1716.45 1931.16C1698.89 1959.29 1679.63 1965.65 1678.89 1974.51C1678.15 1983.38 1719.17 1955.76 1719.17 1955.76L1716.45 1931.16Z" fill="#263238" />
    <path d="M1638.55 1892.02H1638.27C1638.18 1891.91 1638.12 1891.77 1638.12 1891.62C1638.12 1891.47 1638.18 1891.33 1638.27 1891.22C1641.08 1886.56 1644.96 1882.63 1649.6 1879.77C1654.23 1876.92 1659.48 1875.21 1664.91 1874.8C1665.07 1874.8 1665.21 1874.86 1665.32 1874.97C1665.42 1875.08 1665.48 1875.22 1665.48 1875.37C1665.47 1875.52 1665.41 1875.65 1665.3 1875.76C1665.2 1875.86 1665.06 1875.93 1664.91 1875.94V1875.94C1659.68 1876.36 1654.61 1878.02 1650.15 1880.78C1645.68 1883.55 1641.94 1887.34 1639.23 1891.85C1639.16 1891.95 1639.05 1892.02 1638.92 1892.05C1638.8 1892.08 1638.67 1892.07 1638.55 1892.02V1892.02Z" fill="#263238" />
    <path d="M1648.78 1899.46C1648.7 1899.45 1648.63 1899.42 1648.57 1899.38C1648.51 1899.33 1648.46 1899.28 1648.42 1899.21C1648.38 1899.15 1648.36 1899.07 1648.35 1899C1648.34 1898.92 1648.36 1898.85 1648.38 1898.78C1652.36 1879.86 1664.18 1874.97 1664.63 1874.8C1664.7 1874.76 1664.78 1874.72 1664.86 1874.71C1664.94 1874.7 1665.03 1874.7 1665.1 1874.73C1665.18 1874.75 1665.26 1874.79 1665.32 1874.84C1665.38 1874.9 1665.43 1874.97 1665.47 1875.04C1665.5 1875.12 1665.52 1875.2 1665.52 1875.28C1665.51 1875.37 1665.49 1875.45 1665.46 1875.52C1665.42 1875.6 1665.37 1875.66 1665.31 1875.72C1665.24 1875.77 1665.17 1875.8 1665.08 1875.82C1665.08 1875.82 1653.32 1880.71 1649.46 1899.01C1649.45 1899.08 1649.42 1899.15 1649.38 1899.22C1649.33 1899.28 1649.28 1899.34 1649.22 1899.38C1649.15 1899.42 1649.08 1899.45 1649.01 1899.46C1648.93 1899.48 1648.85 1899.48 1648.78 1899.46V1899.46Z" fill="#263238" />
    <path d="M1786.73 1808.95L1763.55 1799.12L1764.51 1796.79C1765.87 1793.48 1767.8 1790.42 1770.19 1787.76C1772.14 1785.67 1774.45 1783.96 1777.01 1782.7C1782.37 1780.45 1787.88 1778.55 1793.49 1777.02C1797.92 1775.72 1800.65 1773.95 1801.56 1771.74C1801.99 1770.78 1802.21 1769.75 1802.21 1768.7C1802.21 1767.65 1801.99 1766.62 1801.56 1765.66C1800.46 1763.56 1798.58 1761.97 1796.33 1761.23C1795.01 1760.67 1793.59 1760.38 1792.15 1760.38C1790.72 1760.38 1789.3 1760.67 1787.98 1761.23C1784.5 1763.15 1781.73 1766.13 1780.08 1769.75L1757.64 1756.8C1761.43 1749.02 1768 1742.94 1776.05 1739.75C1785.63 1736.92 1795.93 1737.91 1804.79 1742.54C1812.5 1745.39 1819.17 1750.5 1823.94 1757.19C1826.49 1760.73 1828.07 1764.87 1828.53 1769.2C1828.99 1773.54 1828.31 1777.92 1826.55 1781.91C1825.03 1785.44 1822.58 1788.48 1819.45 1790.72C1814.3 1793.89 1808.65 1796.2 1802.75 1797.53C1798.72 1798.36 1794.87 1799.9 1791.39 1802.08C1789.32 1803.98 1787.73 1806.33 1786.73 1808.95V1808.95ZM1760.14 1804.98L1784.97 1815.49L1775.7 1837.42L1750.88 1826.85L1760.14 1804.98Z" fill="#E96A6A" />
</svg>
    